<mxfile host="app.diagrams.net" modified="2020-03-19T22:59:44.857Z" agent="Mozilla/5.0 (Windows NT 10.0; Win64; x64) AppleWebKit/537.36 (KHTML, like Gecko) Chrome/80.0.3987.132 Safari/537.36" etag="X4LMOdNjggzUYPMVVoHC" version="12.8.8" type="github">
  <diagram id="s-fJWoQtj2VFVK5msN_l" name="Page-1">
    <mxGraphModel dx="3669" dy="1225" grid="1" gridSize="10" guides="1" tooltips="1" connect="1" arrows="1" fold="1" page="1" pageScale="1" pageWidth="827" pageHeight="1169" math="0" shadow="0">
      <root>
        <mxCell id="0" />
        <mxCell id="1" parent="0" />
        <mxCell id="IQOuE0TxBNfk_iXKN2kF-1" style="edgeStyle=orthogonalEdgeStyle;curved=1;comic=0;orthogonalLoop=1;jettySize=auto;html=1;exitX=0.5;exitY=1;exitDx=0;exitDy=0;shadow=0;startArrow=classic;startFill=1;endArrow=none;endFill=0;dashed=1;" parent="1" source="EgX6zlfz2IxhlC0AGUEL-5" target="EgX6zlfz2IxhlC0AGUEL-25" edge="1">
          <mxGeometry relative="1" as="geometry" />
        </mxCell>
        <mxCell id="IQOuE0TxBNfk_iXKN2kF-121" value="rdfs:subClassOf" style="text;html=1;align=center;verticalAlign=middle;resizable=0;points=[];labelBackgroundColor=#ffffff;fontColor=#000000;" parent="IQOuE0TxBNfk_iXKN2kF-1" vertex="1" connectable="0">
          <mxGeometry x="0.3004" y="-3" relative="1" as="geometry">
            <mxPoint x="5.43" y="32" as="offset" />
          </mxGeometry>
        </mxCell>
        <mxCell id="IQOuE0TxBNfk_iXKN2kF-7" style="edgeStyle=orthogonalEdgeStyle;curved=1;comic=0;orthogonalLoop=1;jettySize=auto;html=1;shadow=0;startArrow=classic;startFill=1;endArrow=none;endFill=0;exitX=0.5;exitY=1;exitDx=0;exitDy=0;dashed=1;" parent="1" source="EgX6zlfz2IxhlC0AGUEL-5" target="EgX6zlfz2IxhlC0AGUEL-37" edge="1">
          <mxGeometry relative="1" as="geometry" />
        </mxCell>
        <mxCell id="IQOuE0TxBNfk_iXKN2kF-116" value="rdfs:subClassOf" style="text;html=1;align=center;verticalAlign=middle;resizable=0;points=[];labelBackgroundColor=#ffffff;fontColor=#000000;" parent="IQOuE0TxBNfk_iXKN2kF-7" vertex="1" connectable="0">
          <mxGeometry x="0.1369" y="1" relative="1" as="geometry">
            <mxPoint x="11" y="30" as="offset" />
          </mxGeometry>
        </mxCell>
        <mxCell id="EgX6zlfz2IxhlC0AGUEL-5" value="sbeo:Device" style="ellipse;whiteSpace=wrap;html=1;aspect=fixed;fillColor=#dae8fc;strokeColor=#6c8ebf;shadow=0;" parent="1" vertex="1">
          <mxGeometry x="120" y="274" width="80" height="80" as="geometry" />
        </mxCell>
        <mxCell id="EgX6zlfz2IxhlC0AGUEL-6" value="seas:Zone&lt;br&gt;Connection" style="ellipse;whiteSpace=wrap;html=1;aspect=fixed;fillColor=#1ba1e2;strokeColor=#006EAF;fontColor=#ffffff;shadow=0;" parent="1" vertex="1">
          <mxGeometry x="630" y="223.5" width="80" height="80" as="geometry" />
        </mxCell>
        <mxCell id="IQOuE0TxBNfk_iXKN2kF-49" style="edgeStyle=orthogonalEdgeStyle;curved=1;comic=0;orthogonalLoop=1;jettySize=auto;html=1;entryX=1;entryY=0.5;entryDx=0;entryDy=0;shadow=0;startArrow=classic;startFill=1;endArrow=none;endFill=0;dashed=1;" parent="1" source="EgX6zlfz2IxhlC0AGUEL-8" target="IQOuE0TxBNfk_iXKN2kF-43" edge="1">
          <mxGeometry relative="1" as="geometry">
            <Array as="points">
              <mxPoint x="-640" y="515" />
              <mxPoint x="-640" y="453" />
            </Array>
          </mxGeometry>
        </mxCell>
        <mxCell id="IQOuE0TxBNfk_iXKN2kF-50" style="edgeStyle=orthogonalEdgeStyle;curved=1;comic=0;orthogonalLoop=1;jettySize=auto;html=1;entryX=1;entryY=0.5;entryDx=0;entryDy=0;shadow=0;startArrow=classic;startFill=1;endArrow=none;endFill=0;dashed=1;exitX=0;exitY=0.5;exitDx=0;exitDy=0;" parent="1" source="EgX6zlfz2IxhlC0AGUEL-8" target="IQOuE0TxBNfk_iXKN2kF-42" edge="1">
          <mxGeometry relative="1" as="geometry">
            <Array as="points">
              <mxPoint x="-771" y="515" />
            </Array>
          </mxGeometry>
        </mxCell>
        <mxCell id="IQOuE0TxBNfk_iXKN2kF-95" value="rdfs:subClassOf" style="text;html=1;align=center;verticalAlign=middle;resizable=0;points=[];labelBackgroundColor=#ffffff;fontColor=#000000;" parent="IQOuE0TxBNfk_iXKN2kF-50" vertex="1" connectable="0">
          <mxGeometry x="0.7188" y="19" relative="1" as="geometry">
            <mxPoint x="42.03" y="-5" as="offset" />
          </mxGeometry>
        </mxCell>
        <mxCell id="IQOuE0TxBNfk_iXKN2kF-51" style="edgeStyle=orthogonalEdgeStyle;curved=1;comic=0;orthogonalLoop=1;jettySize=auto;html=1;entryX=1;entryY=0.5;entryDx=0;entryDy=0;shadow=0;startArrow=classic;startFill=1;endArrow=none;endFill=0;dashed=1;" parent="1" source="EgX6zlfz2IxhlC0AGUEL-8" target="IQOuE0TxBNfk_iXKN2kF-41" edge="1">
          <mxGeometry relative="1" as="geometry">
            <Array as="points">
              <mxPoint x="-680" y="515" />
              <mxPoint x="-680" y="629" />
            </Array>
          </mxGeometry>
        </mxCell>
        <mxCell id="IQOuE0TxBNfk_iXKN2kF-102" value="rdfs:subClassOf" style="text;html=1;align=center;verticalAlign=middle;resizable=0;points=[];labelBackgroundColor=#ffffff;fontColor=#000000;" parent="IQOuE0TxBNfk_iXKN2kF-51" vertex="1" connectable="0">
          <mxGeometry x="0.5095" y="-8" relative="1" as="geometry">
            <mxPoint x="-31.97" y="-1.97" as="offset" />
          </mxGeometry>
        </mxCell>
        <mxCell id="IQOuE0TxBNfk_iXKN2kF-53" style="edgeStyle=orthogonalEdgeStyle;curved=1;comic=0;orthogonalLoop=1;jettySize=auto;html=1;entryX=1;entryY=0.5;entryDx=0;entryDy=0;shadow=0;startArrow=classic;startFill=1;endArrow=none;endFill=0;dashed=1;" parent="1" source="EgX6zlfz2IxhlC0AGUEL-8" target="IQOuE0TxBNfk_iXKN2kF-32" edge="1">
          <mxGeometry relative="1" as="geometry">
            <Array as="points">
              <mxPoint x="-671" y="515" />
              <mxPoint x="-671" y="718" />
            </Array>
          </mxGeometry>
        </mxCell>
        <mxCell id="IQOuE0TxBNfk_iXKN2kF-101" value="rdfs:subClassOf" style="text;html=1;align=center;verticalAlign=middle;resizable=0;points=[];labelBackgroundColor=#ffffff;fontColor=#000000;" parent="IQOuE0TxBNfk_iXKN2kF-53" vertex="1" connectable="0">
          <mxGeometry x="0.6322" y="-15" relative="1" as="geometry">
            <mxPoint x="-48.92" y="2.92" as="offset" />
          </mxGeometry>
        </mxCell>
        <mxCell id="IQOuE0TxBNfk_iXKN2kF-57" style="edgeStyle=orthogonalEdgeStyle;curved=1;comic=0;orthogonalLoop=1;jettySize=auto;html=1;shadow=0;startArrow=classic;startFill=1;endArrow=none;endFill=0;dashed=1;entryX=0.5;entryY=0;entryDx=0;entryDy=0;exitX=0;exitY=0.5;exitDx=0;exitDy=0;" parent="1" source="EgX6zlfz2IxhlC0AGUEL-8" target="IQOuE0TxBNfk_iXKN2kF-45" edge="1">
          <mxGeometry relative="1" as="geometry">
            <mxPoint x="-951" y="336" as="targetPoint" />
            <Array as="points">
              <mxPoint x="-631" y="515" />
              <mxPoint x="-631" y="396" />
              <mxPoint x="-911" y="396" />
            </Array>
          </mxGeometry>
        </mxCell>
        <mxCell id="IQOuE0TxBNfk_iXKN2kF-96" value="rdfs:subClassOf" style="text;html=1;align=center;verticalAlign=middle;resizable=0;points=[];labelBackgroundColor=#ffffff;fontColor=#000000;" parent="IQOuE0TxBNfk_iXKN2kF-57" vertex="1" connectable="0">
          <mxGeometry x="0.5785" y="1" relative="1" as="geometry">
            <mxPoint x="67" y="-1" as="offset" />
          </mxGeometry>
        </mxCell>
        <mxCell id="IQOuE0TxBNfk_iXKN2kF-67" style="edgeStyle=orthogonalEdgeStyle;curved=1;comic=0;orthogonalLoop=1;jettySize=auto;html=1;entryX=1;entryY=0.5;entryDx=0;entryDy=0;shadow=0;startArrow=classic;startFill=1;endArrow=none;endFill=0;dashed=1;" parent="1" source="EgX6zlfz2IxhlC0AGUEL-8" target="IQOuE0TxBNfk_iXKN2kF-44" edge="1">
          <mxGeometry relative="1" as="geometry">
            <Array as="points">
              <mxPoint x="-671" y="515" />
              <mxPoint x="-671" y="809" />
            </Array>
          </mxGeometry>
        </mxCell>
        <mxCell id="IQOuE0TxBNfk_iXKN2kF-99" value="rdfs:subClassOf" style="text;html=1;align=center;verticalAlign=middle;resizable=0;points=[];labelBackgroundColor=#ffffff;fontColor=#000000;" parent="IQOuE0TxBNfk_iXKN2kF-67" vertex="1" connectable="0">
          <mxGeometry x="0.7481" y="-12" relative="1" as="geometry">
            <mxPoint x="-32.33" y="-6" as="offset" />
          </mxGeometry>
        </mxCell>
        <mxCell id="IQOuE0TxBNfk_iXKN2kF-68" style="edgeStyle=orthogonalEdgeStyle;curved=1;comic=0;orthogonalLoop=1;jettySize=auto;html=1;entryX=1;entryY=0.5;entryDx=0;entryDy=0;shadow=0;startArrow=classic;startFill=1;endArrow=none;endFill=0;dashed=1;exitX=0;exitY=0.5;exitDx=0;exitDy=0;" parent="1" source="EgX6zlfz2IxhlC0AGUEL-8" target="IQOuE0TxBNfk_iXKN2kF-46" edge="1">
          <mxGeometry relative="1" as="geometry">
            <Array as="points">
              <mxPoint x="-671" y="515" />
              <mxPoint x="-671" y="896" />
            </Array>
          </mxGeometry>
        </mxCell>
        <mxCell id="IQOuE0TxBNfk_iXKN2kF-98" value="rdfs:subClassOf" style="text;html=1;align=center;verticalAlign=middle;resizable=0;points=[];labelBackgroundColor=#ffffff;fontColor=#000000;" parent="IQOuE0TxBNfk_iXKN2kF-68" vertex="1" connectable="0">
          <mxGeometry x="0.3801" y="-12" relative="1" as="geometry">
            <mxPoint x="-36" y="86.52" as="offset" />
          </mxGeometry>
        </mxCell>
        <mxCell id="IQOuE0TxBNfk_iXKN2kF-313" style="edgeStyle=orthogonalEdgeStyle;curved=1;comic=0;orthogonalLoop=1;jettySize=auto;html=1;exitX=0;exitY=0.5;exitDx=0;exitDy=0;shadow=0;startArrow=none;startFill=0;endArrow=classic;endFill=1;fontColor=#000000;entryX=0.5;entryY=1;entryDx=0;entryDy=0;" parent="1" source="EgX6zlfz2IxhlC0AGUEL-8" target="EgX6zlfz2IxhlC0AGUEL-10" edge="1">
          <mxGeometry relative="1" as="geometry">
            <Array as="points">
              <mxPoint x="-501" y="515" />
            </Array>
          </mxGeometry>
        </mxCell>
        <mxCell id="IQOuE0TxBNfk_iXKN2kF-314" value="&lt;span style=&quot;background-color: rgb(102 , 255 , 255)&quot;&gt;sbeo:assignedRoute&lt;/span&gt;" style="text;html=1;align=center;verticalAlign=middle;resizable=0;points=[];labelBackgroundColor=#ffffff;" parent="IQOuE0TxBNfk_iXKN2kF-313" vertex="1" connectable="0">
          <mxGeometry x="0.1724" y="-10" relative="1" as="geometry">
            <mxPoint x="-9.970000000000002" y="-38.34" as="offset" />
          </mxGeometry>
        </mxCell>
        <mxCell id="EgX6zlfz2IxhlC0AGUEL-8" value="sbeo:Person" style="ellipse;whiteSpace=wrap;html=1;aspect=fixed;fillColor=#1ba1e2;strokeColor=#006EAF;shadow=0;fontColor=#ffffff;" parent="1" vertex="1">
          <mxGeometry x="-405" y="475" width="80" height="80" as="geometry" />
        </mxCell>
        <mxCell id="IQOuE0TxBNfk_iXKN2kF-24" style="edgeStyle=orthogonalEdgeStyle;curved=1;comic=0;orthogonalLoop=1;jettySize=auto;html=1;entryX=1;entryY=0.5;entryDx=0;entryDy=0;shadow=0;startArrow=classic;startFill=1;endArrow=none;endFill=0;dashed=1;exitX=0;exitY=0.5;exitDx=0;exitDy=0;" parent="1" source="EgX6zlfz2IxhlC0AGUEL-9" target="IQOuE0TxBNfk_iXKN2kF-23" edge="1">
          <mxGeometry relative="1" as="geometry">
            <Array as="points">
              <mxPoint x="-270" y="256" />
            </Array>
          </mxGeometry>
        </mxCell>
        <mxCell id="IQOuE0TxBNfk_iXKN2kF-146" value="rdfs:subClassOf" style="text;html=1;align=center;verticalAlign=middle;resizable=0;points=[];labelBackgroundColor=#ffffff;fontColor=#000000;rotation=-5;" parent="IQOuE0TxBNfk_iXKN2kF-24" vertex="1" connectable="0">
          <mxGeometry x="0.2353" y="-1" relative="1" as="geometry">
            <mxPoint x="31" y="1" as="offset" />
          </mxGeometry>
        </mxCell>
        <mxCell id="IQOuE0TxBNfk_iXKN2kF-25" style="edgeStyle=orthogonalEdgeStyle;curved=1;comic=0;orthogonalLoop=1;jettySize=auto;html=1;entryX=1;entryY=0.5;entryDx=0;entryDy=0;shadow=0;startArrow=classic;startFill=1;endArrow=none;endFill=0;dashed=1;exitX=0;exitY=0.5;exitDx=0;exitDy=0;" parent="1" source="EgX6zlfz2IxhlC0AGUEL-9" target="IQOuE0TxBNfk_iXKN2kF-17" edge="1">
          <mxGeometry relative="1" as="geometry">
            <Array as="points">
              <mxPoint x="-210" y="256" />
              <mxPoint x="-210" y="366" />
            </Array>
          </mxGeometry>
        </mxCell>
        <mxCell id="IQOuE0TxBNfk_iXKN2kF-127" value="rdfs:subClassOf" style="text;html=1;align=center;verticalAlign=middle;resizable=0;points=[];labelBackgroundColor=#ffffff;fontColor=#000000;" parent="IQOuE0TxBNfk_iXKN2kF-25" vertex="1" connectable="0">
          <mxGeometry x="0.4935" y="-3" relative="1" as="geometry">
            <mxPoint x="-7.030000000000001" y="-26.910000000000004" as="offset" />
          </mxGeometry>
        </mxCell>
        <mxCell id="IQOuE0TxBNfk_iXKN2kF-27" style="edgeStyle=orthogonalEdgeStyle;curved=1;comic=0;orthogonalLoop=1;jettySize=auto;html=1;exitX=0.5;exitY=1;exitDx=0;exitDy=0;entryX=0.5;entryY=0;entryDx=0;entryDy=0;shadow=0;startArrow=classic;startFill=1;endArrow=none;endFill=0;dashed=1;" parent="1" source="EgX6zlfz2IxhlC0AGUEL-9" target="IQOuE0TxBNfk_iXKN2kF-20" edge="1">
          <mxGeometry relative="1" as="geometry">
            <Array as="points">
              <mxPoint x="-120" y="296" />
            </Array>
          </mxGeometry>
        </mxCell>
        <mxCell id="IQOuE0TxBNfk_iXKN2kF-129" value="rdfs:subClassOf" style="text;html=1;align=center;verticalAlign=middle;resizable=0;points=[];labelBackgroundColor=#ffffff;fontColor=#000000;" parent="IQOuE0TxBNfk_iXKN2kF-27" vertex="1" connectable="0">
          <mxGeometry x="0.4857" y="6" relative="1" as="geometry">
            <mxPoint x="4.119999999999999" y="-44.49000000000001" as="offset" />
          </mxGeometry>
        </mxCell>
        <mxCell id="IQOuE0TxBNfk_iXKN2kF-28" style="edgeStyle=orthogonalEdgeStyle;curved=1;comic=0;orthogonalLoop=1;jettySize=auto;html=1;entryX=0.5;entryY=0;entryDx=0;entryDy=0;shadow=0;startArrow=classic;startFill=1;endArrow=none;endFill=0;dashed=1;exitX=1;exitY=0.5;exitDx=0;exitDy=0;" parent="1" source="EgX6zlfz2IxhlC0AGUEL-9" target="IQOuE0TxBNfk_iXKN2kF-19" edge="1">
          <mxGeometry relative="1" as="geometry">
            <Array as="points">
              <mxPoint x="-30" y="256" />
            </Array>
          </mxGeometry>
        </mxCell>
        <mxCell id="IQOuE0TxBNfk_iXKN2kF-130" value="rdfs:subClassOf" style="text;html=1;align=center;verticalAlign=middle;resizable=0;points=[];labelBackgroundColor=#ffffff;fontColor=#000000;" parent="IQOuE0TxBNfk_iXKN2kF-28" vertex="1" connectable="0">
          <mxGeometry x="0.4454" y="-9" relative="1" as="geometry">
            <mxPoint x="-1.0099999999999998" y="-35.379999999999995" as="offset" />
          </mxGeometry>
        </mxCell>
        <mxCell id="IQOuE0TxBNfk_iXKN2kF-29" style="edgeStyle=orthogonalEdgeStyle;curved=1;comic=0;orthogonalLoop=1;jettySize=auto;html=1;entryX=0.5;entryY=0;entryDx=0;entryDy=0;shadow=0;startArrow=classic;startFill=1;endArrow=none;endFill=0;exitX=1;exitY=0.5;exitDx=0;exitDy=0;dashed=1;" parent="1" source="EgX6zlfz2IxhlC0AGUEL-9" target="IQOuE0TxBNfk_iXKN2kF-21" edge="1">
          <mxGeometry relative="1" as="geometry" />
        </mxCell>
        <mxCell id="IQOuE0TxBNfk_iXKN2kF-126" value="rdfs:subClassOf" style="text;html=1;align=center;verticalAlign=middle;resizable=0;points=[];labelBackgroundColor=#ffffff;fontColor=#000000;" parent="IQOuE0TxBNfk_iXKN2kF-29" vertex="1" connectable="0">
          <mxGeometry x="-0.1445" y="-24" relative="1" as="geometry">
            <mxPoint x="3.969999999999999" y="15.719999999999999" as="offset" />
          </mxGeometry>
        </mxCell>
        <mxCell id="IQOuE0TxBNfk_iXKN2kF-31" style="edgeStyle=orthogonalEdgeStyle;curved=1;comic=0;orthogonalLoop=1;jettySize=auto;html=1;exitX=0;exitY=0.5;exitDx=0;exitDy=0;entryX=1;entryY=0;entryDx=0;entryDy=0;shadow=0;startArrow=classic;startFill=1;endArrow=none;endFill=0;dashed=1;" parent="1" source="EgX6zlfz2IxhlC0AGUEL-9" target="IQOuE0TxBNfk_iXKN2kF-22" edge="1">
          <mxGeometry relative="1" as="geometry" />
        </mxCell>
        <mxCell id="IQOuE0TxBNfk_iXKN2kF-128" value="rdfs:subClassOf" style="text;html=1;align=center;verticalAlign=middle;resizable=0;points=[];labelBackgroundColor=#ffffff;fontColor=#000000;" parent="IQOuE0TxBNfk_iXKN2kF-31" vertex="1" connectable="0">
          <mxGeometry x="0.7075" y="6" relative="1" as="geometry">
            <mxPoint x="-7.43" y="-39.74" as="offset" />
          </mxGeometry>
        </mxCell>
        <mxCell id="IQOuE0TxBNfk_iXKN2kF-216" style="edgeStyle=orthogonalEdgeStyle;curved=1;comic=0;orthogonalLoop=1;jettySize=auto;html=1;exitX=0;exitY=0;exitDx=0;exitDy=0;entryX=0.5;entryY=0;entryDx=0;entryDy=0;shadow=0;startArrow=none;startFill=0;endArrow=classic;endFill=1;fontColor=#000000;" parent="1" source="EgX6zlfz2IxhlC0AGUEL-9" target="IQOuE0TxBNfk_iXKN2kF-215" edge="1">
          <mxGeometry relative="1" as="geometry">
            <Array as="points">
              <mxPoint x="-127" y="186" />
              <mxPoint x="-211" y="186" />
            </Array>
          </mxGeometry>
        </mxCell>
        <mxCell id="IQOuE0TxBNfk_iXKN2kF-217" value="&lt;span style=&quot;background-color: rgb(102 , 255 , 102)&quot;&gt;sbeo:atTime&lt;/span&gt;" style="text;html=1;align=center;verticalAlign=middle;resizable=0;points=[];labelBackgroundColor=#ffffff;" parent="IQOuE0TxBNfk_iXKN2kF-216" vertex="1" connectable="0">
          <mxGeometry x="-0.4969" y="-12" relative="1" as="geometry">
            <mxPoint x="-56.7" y="3.620000000000001" as="offset" />
          </mxGeometry>
        </mxCell>
        <mxCell id="EgX6zlfz2IxhlC0AGUEL-9" value="sbeo:Incident" style="ellipse;whiteSpace=wrap;html=1;aspect=fixed;fillColor=#dae8fc;strokeColor=#6c8ebf;shadow=0;" parent="1" vertex="1">
          <mxGeometry x="-139" y="216" width="80" height="80" as="geometry" />
        </mxCell>
        <mxCell id="IQOuE0TxBNfk_iXKN2kF-248" style="edgeStyle=orthogonalEdgeStyle;curved=1;comic=0;orthogonalLoop=1;jettySize=auto;html=1;entryX=0.5;entryY=1;entryDx=0;entryDy=0;shadow=0;startArrow=none;startFill=0;endArrow=classic;endFill=1;fontColor=#000000;exitX=0;exitY=0;exitDx=0;exitDy=0;" parent="1" source="EgX6zlfz2IxhlC0AGUEL-10" target="IQOuE0TxBNfk_iXKN2kF-247" edge="1">
          <mxGeometry relative="1" as="geometry">
            <Array as="points">
              <mxPoint x="-668.97" y="361" />
            </Array>
          </mxGeometry>
        </mxCell>
        <mxCell id="IQOuE0TxBNfk_iXKN2kF-249" value="&lt;span style=&quot;background-color: rgb(102 , 255 , 102)&quot;&gt;sbeo:hasLength&lt;/span&gt;" style="text;html=1;align=center;verticalAlign=middle;resizable=0;points=[];labelBackgroundColor=#ffffff;" parent="IQOuE0TxBNfk_iXKN2kF-248" vertex="1" connectable="0">
          <mxGeometry x="0.2469" y="-1" relative="1" as="geometry">
            <mxPoint x="-1" y="-12.14" as="offset" />
          </mxGeometry>
        </mxCell>
        <mxCell id="IQOuE0TxBNfk_iXKN2kF-333" style="edgeStyle=orthogonalEdgeStyle;curved=1;comic=0;orthogonalLoop=1;jettySize=auto;html=1;exitX=0;exitY=0;exitDx=0;exitDy=0;entryX=0;entryY=0.5;entryDx=0;entryDy=0;shadow=0;startArrow=none;startFill=0;endArrow=classic;endFill=1;fontColor=#000000;" parent="1" source="EgX6zlfz2IxhlC0AGUEL-10" target="IQOuE0TxBNfk_iXKN2kF-332" edge="1">
          <mxGeometry relative="1" as="geometry">
            <Array as="points">
              <mxPoint x="-779.97" y="361" />
              <mxPoint x="-779.97" y="234" />
            </Array>
          </mxGeometry>
        </mxCell>
        <mxCell id="IQOuE0TxBNfk_iXKN2kF-334" value="&lt;span style=&quot;background-color: rgb(102 , 255 , 255)&quot;&gt;sbeo:endsIn&lt;/span&gt;" style="text;html=1;align=center;verticalAlign=middle;resizable=0;points=[];labelBackgroundColor=#ffffff;" parent="IQOuE0TxBNfk_iXKN2kF-333" vertex="1" connectable="0">
          <mxGeometry x="-0.028" y="-8" relative="1" as="geometry">
            <mxPoint x="1.9700000000000024" y="-89.26" as="offset" />
          </mxGeometry>
        </mxCell>
        <mxCell id="IQOuE0TxBNfk_iXKN2kF-338" style="edgeStyle=orthogonalEdgeStyle;curved=1;comic=0;orthogonalLoop=1;jettySize=auto;html=1;exitX=0;exitY=0;exitDx=0;exitDy=0;entryX=0;entryY=0.5;entryDx=0;entryDy=0;shadow=0;startArrow=none;startFill=0;endArrow=classic;endFill=1;fontColor=#000000;" parent="1" source="EgX6zlfz2IxhlC0AGUEL-10" target="IQOuE0TxBNfk_iXKN2kF-332" edge="1">
          <mxGeometry relative="1" as="geometry">
            <Array as="points">
              <mxPoint x="-889.97" y="361" />
              <mxPoint x="-889.97" y="234" />
            </Array>
          </mxGeometry>
        </mxCell>
        <mxCell id="IQOuE0TxBNfk_iXKN2kF-339" value="&lt;span style=&quot;background-color: rgb(102 , 255 , 255)&quot;&gt;sbeo:hasPath&lt;/span&gt;" style="text;html=1;align=center;verticalAlign=middle;resizable=0;points=[];labelBackgroundColor=#ffffff;" parent="IQOuE0TxBNfk_iXKN2kF-338" vertex="1" connectable="0">
          <mxGeometry x="0.3597" y="-6" relative="1" as="geometry">
            <mxPoint x="-6.03" y="62.879999999999995" as="offset" />
          </mxGeometry>
        </mxCell>
        <mxCell id="EgX6zlfz2IxhlC0AGUEL-10" value="sbeo:Route" style="ellipse;whiteSpace=wrap;html=1;aspect=fixed;fillColor=#dae8fc;strokeColor=#6c8ebf;shadow=0;" parent="1" vertex="1">
          <mxGeometry x="-540.97" y="358" width="80" height="80" as="geometry" />
        </mxCell>
        <mxCell id="IQOuE0TxBNfk_iXKN2kF-78" style="edgeStyle=orthogonalEdgeStyle;curved=1;comic=0;orthogonalLoop=1;jettySize=auto;html=1;entryX=0;entryY=0.5;entryDx=0;entryDy=0;shadow=0;startArrow=classic;startFill=1;endArrow=none;endFill=0;dashed=1;" parent="1" source="EgX6zlfz2IxhlC0AGUEL-11" target="IQOuE0TxBNfk_iXKN2kF-77" edge="1">
          <mxGeometry relative="1" as="geometry" />
        </mxCell>
        <mxCell id="IQOuE0TxBNfk_iXKN2kF-109" value="rdfs:subClassOf" style="text;html=1;align=center;verticalAlign=middle;resizable=0;points=[];labelBackgroundColor=#ffffff;fontColor=#000000;" parent="IQOuE0TxBNfk_iXKN2kF-78" vertex="1" connectable="0">
          <mxGeometry x="-0.4006" y="22" relative="1" as="geometry">
            <mxPoint x="26" y="7.5" as="offset" />
          </mxGeometry>
        </mxCell>
        <mxCell id="IQOuE0TxBNfk_iXKN2kF-79" style="edgeStyle=orthogonalEdgeStyle;curved=1;comic=0;orthogonalLoop=1;jettySize=auto;html=1;exitX=1;exitY=0.5;exitDx=0;exitDy=0;entryX=0;entryY=0.5;entryDx=0;entryDy=0;shadow=0;startArrow=classic;startFill=1;endArrow=none;endFill=0;dashed=1;" parent="1" source="EgX6zlfz2IxhlC0AGUEL-11" target="IQOuE0TxBNfk_iXKN2kF-69" edge="1">
          <mxGeometry relative="1" as="geometry" />
        </mxCell>
        <mxCell id="IQOuE0TxBNfk_iXKN2kF-108" value="rdfs:subClassOf" style="text;html=1;align=center;verticalAlign=middle;resizable=0;points=[];labelBackgroundColor=#ffffff;fontColor=#000000;" parent="IQOuE0TxBNfk_iXKN2kF-79" vertex="1" connectable="0">
          <mxGeometry x="0.2927" y="8" relative="1" as="geometry">
            <mxPoint x="26.000000000000004" y="-8.41" as="offset" />
          </mxGeometry>
        </mxCell>
        <mxCell id="IQOuE0TxBNfk_iXKN2kF-81" style="edgeStyle=orthogonalEdgeStyle;curved=1;comic=0;orthogonalLoop=1;jettySize=auto;html=1;entryX=0.5;entryY=0;entryDx=0;entryDy=0;shadow=0;startArrow=classic;startFill=1;endArrow=none;endFill=0;dashed=1;exitX=1;exitY=0.5;exitDx=0;exitDy=0;" parent="1" source="EgX6zlfz2IxhlC0AGUEL-11" target="IQOuE0TxBNfk_iXKN2kF-72" edge="1">
          <mxGeometry relative="1" as="geometry">
            <Array as="points">
              <mxPoint x="1071" y="264" />
              <mxPoint x="1071" y="446" />
              <mxPoint x="991" y="446" />
            </Array>
          </mxGeometry>
        </mxCell>
        <mxCell id="IQOuE0TxBNfk_iXKN2kF-106" value="rdfs:subClassOf" style="text;html=1;align=center;verticalAlign=middle;resizable=0;points=[];labelBackgroundColor=#ffffff;fontColor=#000000;" parent="IQOuE0TxBNfk_iXKN2kF-81" vertex="1" connectable="0">
          <mxGeometry x="0.3118" y="1" relative="1" as="geometry">
            <mxPoint x="-2" y="-9.879999999999999" as="offset" />
          </mxGeometry>
        </mxCell>
        <mxCell id="EgX6zlfz2IxhlC0AGUEL-11" value="sbeo:Space&lt;br&gt;Characteristic" style="ellipse;aspect=fixed;fillColor=#dae8fc;strokeColor=#6c8ebf;horizontal=1;verticalAlign=middle;align=center;labelBorderColor=none;whiteSpace=wrap;html=1;shadow=0;" parent="1" vertex="1">
          <mxGeometry x="951" y="223.5" width="80" height="80" as="geometry" />
        </mxCell>
        <mxCell id="EgX6zlfz2IxhlC0AGUEL-67" style="edgeStyle=orthogonalEdgeStyle;curved=1;comic=0;orthogonalLoop=1;jettySize=auto;html=1;entryX=0.5;entryY=0;entryDx=0;entryDy=0;shadow=0;startArrow=classic;startFill=1;endArrow=none;endFill=0;dashed=1;" parent="1" source="EgX6zlfz2IxhlC0AGUEL-14" target="EgX6zlfz2IxhlC0AGUEL-26" edge="1">
          <mxGeometry relative="1" as="geometry">
            <Array as="points">
              <mxPoint x="520" y="336" />
              <mxPoint x="360" y="336" />
            </Array>
          </mxGeometry>
        </mxCell>
        <mxCell id="IQOuE0TxBNfk_iXKN2kF-134" value="rdfs:subClassOf" style="text;html=1;align=center;verticalAlign=middle;resizable=0;points=[];labelBackgroundColor=#ffffff;fontColor=#000000;" parent="EgX6zlfz2IxhlC0AGUEL-67" vertex="1" connectable="0">
          <mxGeometry x="0.5489" y="4" relative="1" as="geometry">
            <mxPoint x="73.69000000000001" y="-4" as="offset" />
          </mxGeometry>
        </mxCell>
        <mxCell id="IQOuE0TxBNfk_iXKN2kF-281" style="edgeStyle=orthogonalEdgeStyle;curved=1;comic=0;orthogonalLoop=1;jettySize=auto;html=1;exitX=0;exitY=0;exitDx=0;exitDy=0;entryX=0.5;entryY=0;entryDx=0;entryDy=0;shadow=0;startArrow=none;startFill=0;endArrow=classic;endFill=1;fontColor=#000000;" parent="1" source="EgX6zlfz2IxhlC0AGUEL-14" target="IQOuE0TxBNfk_iXKN2kF-274" edge="1">
          <mxGeometry relative="1" as="geometry">
            <Array as="points">
              <mxPoint x="492" y="206" />
              <mxPoint x="252" y="206" />
            </Array>
          </mxGeometry>
        </mxCell>
        <mxCell id="IQOuE0TxBNfk_iXKN2kF-290" value="&lt;span style=&quot;background-color: rgb(102 , 255 , 102)&quot;&gt;sbeo:accomodation&lt;/span&gt;&lt;br&gt;&lt;span style=&quot;background-color: rgb(102 , 255 , 102)&quot;&gt;Capacity&lt;/span&gt;" style="text;html=1;align=center;verticalAlign=middle;resizable=0;points=[];labelBackgroundColor=#ffffff;" parent="IQOuE0TxBNfk_iXKN2kF-281" vertex="1" connectable="0">
          <mxGeometry x="0.1062" y="-1" relative="1" as="geometry">
            <mxPoint x="74.26" y="6" as="offset" />
          </mxGeometry>
        </mxCell>
        <mxCell id="yLDOqc1vmUTKO-x5eXoO-14" style="edgeStyle=orthogonalEdgeStyle;orthogonalLoop=1;jettySize=auto;html=1;exitX=0;exitY=0;exitDx=0;exitDy=0;entryX=0.5;entryY=0;entryDx=0;entryDy=0;curved=1;" parent="1" source="EgX6zlfz2IxhlC0AGUEL-14" target="IQOuE0TxBNfk_iXKN2kF-274" edge="1">
          <mxGeometry relative="1" as="geometry">
            <Array as="points">
              <mxPoint x="252" y="235" />
            </Array>
          </mxGeometry>
        </mxCell>
        <mxCell id="yLDOqc1vmUTKO-x5eXoO-15" value="&lt;span style=&quot;background-color: rgb(102 , 255 , 102)&quot;&gt;sbeo:current&lt;/span&gt;&lt;br&gt;&lt;span style=&quot;background-color: rgb(102 , 255 , 102)&quot;&gt;Occupancy&lt;/span&gt;" style="text;html=1;align=center;verticalAlign=middle;resizable=0;points=[];labelBackgroundColor=#ffffff;" parent="yLDOqc1vmUTKO-x5eXoO-14" vertex="1" connectable="0">
          <mxGeometry x="-0.1964" relative="1" as="geometry">
            <mxPoint x="21.08" y="5.789999999999999" as="offset" />
          </mxGeometry>
        </mxCell>
        <mxCell id="EgX6zlfz2IxhlC0AGUEL-14" value="seas:Zone" style="ellipse;whiteSpace=wrap;html=1;aspect=fixed;fillColor=#1ba1e2;strokeColor=#006EAF;fontColor=#ffffff;shadow=0;" parent="1" vertex="1">
          <mxGeometry x="480" y="223.49999999999977" width="80" height="80" as="geometry" />
        </mxCell>
        <mxCell id="EgX6zlfz2IxhlC0AGUEL-58" style="edgeStyle=orthogonalEdgeStyle;curved=1;comic=0;orthogonalLoop=1;jettySize=auto;html=1;exitX=0;exitY=0.5;exitDx=0;exitDy=0;entryX=0;entryY=0.5;entryDx=0;entryDy=0;shadow=0;startArrow=classic;startFill=1;endArrow=none;endFill=0;dashed=1;" parent="1" source="EgX6zlfz2IxhlC0AGUEL-16" target="EgX6zlfz2IxhlC0AGUEL-5" edge="1">
          <mxGeometry relative="1" as="geometry">
            <Array as="points">
              <mxPoint x="90" y="136" />
              <mxPoint x="90" y="314" />
            </Array>
          </mxGeometry>
        </mxCell>
        <mxCell id="IQOuE0TxBNfk_iXKN2kF-103" value="rdfs:subClassOf" style="text;html=1;align=center;verticalAlign=middle;resizable=0;points=[];labelBackgroundColor=#ffffff;fontColor=#000000;" parent="EgX6zlfz2IxhlC0AGUEL-58" vertex="1" connectable="0">
          <mxGeometry x="-0.1458" y="-2" relative="1" as="geometry">
            <mxPoint x="5" y="13.620000000000001" as="offset" />
          </mxGeometry>
        </mxCell>
        <mxCell id="EgX6zlfz2IxhlC0AGUEL-59" style="edgeStyle=orthogonalEdgeStyle;curved=1;comic=0;orthogonalLoop=1;jettySize=auto;html=1;exitX=0;exitY=0.5;exitDx=0;exitDy=0;entryX=0.5;entryY=0;entryDx=0;entryDy=0;shadow=0;startArrow=classic;startFill=1;endArrow=none;endFill=0;dashed=1;" parent="1" source="EgX6zlfz2IxhlC0AGUEL-16" target="EgX6zlfz2IxhlC0AGUEL-9" edge="1">
          <mxGeometry relative="1" as="geometry">
            <Array as="points">
              <mxPoint x="-99" y="136" />
            </Array>
          </mxGeometry>
        </mxCell>
        <mxCell id="IQOuE0TxBNfk_iXKN2kF-115" value="rdfs:subClassOf" style="text;html=1;align=center;verticalAlign=middle;resizable=0;points=[];labelBackgroundColor=#ffffff;fontColor=#000000;" parent="EgX6zlfz2IxhlC0AGUEL-59" vertex="1" connectable="0">
          <mxGeometry x="0.8654" y="-15" relative="1" as="geometry">
            <mxPoint x="73.85" y="-29.68" as="offset" />
          </mxGeometry>
        </mxCell>
        <mxCell id="EgX6zlfz2IxhlC0AGUEL-62" style="edgeStyle=orthogonalEdgeStyle;curved=1;comic=0;orthogonalLoop=1;jettySize=auto;html=1;exitX=1;exitY=0.5;exitDx=0;exitDy=0;shadow=0;startArrow=classic;startFill=1;endArrow=none;endFill=0;dashed=1;entryX=0.5;entryY=0;entryDx=0;entryDy=0;" parent="1" source="EgX6zlfz2IxhlC0AGUEL-16" target="EgX6zlfz2IxhlC0AGUEL-11" edge="1">
          <mxGeometry relative="1" as="geometry">
            <Array as="points">
              <mxPoint x="991" y="136" />
            </Array>
          </mxGeometry>
        </mxCell>
        <mxCell id="IQOuE0TxBNfk_iXKN2kF-111" value="rdfs:subClassOf" style="text;html=1;align=center;verticalAlign=middle;resizable=0;points=[];labelBackgroundColor=#ffffff;fontColor=#000000;" parent="EgX6zlfz2IxhlC0AGUEL-62" vertex="1" connectable="0">
          <mxGeometry x="0.7195" y="-25" relative="1" as="geometry">
            <mxPoint x="15" y="33" as="offset" />
          </mxGeometry>
        </mxCell>
        <mxCell id="EgX6zlfz2IxhlC0AGUEL-63" style="edgeStyle=orthogonalEdgeStyle;curved=1;comic=0;orthogonalLoop=1;jettySize=auto;html=1;exitX=1;exitY=0.5;exitDx=0;exitDy=0;entryX=0.5;entryY=0;entryDx=0;entryDy=0;shadow=0;startArrow=classic;startFill=1;endArrow=none;endFill=0;dashed=1;" parent="1" source="EgX6zlfz2IxhlC0AGUEL-16" target="EgX6zlfz2IxhlC0AGUEL-14" edge="1">
          <mxGeometry relative="1" as="geometry">
            <Array as="points">
              <mxPoint x="520" y="136" />
            </Array>
          </mxGeometry>
        </mxCell>
        <mxCell id="IQOuE0TxBNfk_iXKN2kF-114" value="rdfs:subClassOf" style="text;html=1;align=center;verticalAlign=middle;resizable=0;points=[];labelBackgroundColor=#ffffff;fontColor=#000000;" parent="EgX6zlfz2IxhlC0AGUEL-63" vertex="1" connectable="0">
          <mxGeometry x="0.9604" y="-7" relative="1" as="geometry">
            <mxPoint x="-33" y="-45" as="offset" />
          </mxGeometry>
        </mxCell>
        <mxCell id="EgX6zlfz2IxhlC0AGUEL-65" style="edgeStyle=orthogonalEdgeStyle;curved=1;comic=0;orthogonalLoop=1;jettySize=auto;html=1;exitX=1;exitY=0.5;exitDx=0;exitDy=0;shadow=0;startArrow=classic;startFill=1;endArrow=none;endFill=0;dashed=1;entryX=0.5;entryY=0;entryDx=0;entryDy=0;" parent="1" source="EgX6zlfz2IxhlC0AGUEL-16" target="EgX6zlfz2IxhlC0AGUEL-6" edge="1">
          <mxGeometry relative="1" as="geometry">
            <Array as="points">
              <mxPoint x="670" y="136" />
            </Array>
            <mxPoint x="240" y="349" as="targetPoint" />
          </mxGeometry>
        </mxCell>
        <mxCell id="IQOuE0TxBNfk_iXKN2kF-112" value="rdfs:subClassOf" style="text;html=1;align=center;verticalAlign=middle;resizable=0;points=[];labelBackgroundColor=#ffffff;fontColor=#000000;" parent="EgX6zlfz2IxhlC0AGUEL-65" vertex="1" connectable="0">
          <mxGeometry x="0.939" y="-19" relative="1" as="geometry">
            <mxPoint x="8.82" y="-10.170000000000002" as="offset" />
          </mxGeometry>
        </mxCell>
        <mxCell id="IQOuE0TxBNfk_iXKN2kF-14" style="edgeStyle=orthogonalEdgeStyle;comic=0;orthogonalLoop=1;jettySize=auto;html=1;shadow=0;startArrow=classic;startFill=1;endArrow=none;endFill=0;curved=1;dashed=1;exitX=1;exitY=0.5;exitDx=0;exitDy=0;entryX=0.5;entryY=0;entryDx=0;entryDy=0;" parent="1" source="EgX6zlfz2IxhlC0AGUEL-16" target="IQOuE0TxBNfk_iXKN2kF-13" edge="1">
          <mxGeometry relative="1" as="geometry">
            <Array as="points">
              <mxPoint x="862" y="136" />
            </Array>
          </mxGeometry>
        </mxCell>
        <mxCell id="IQOuE0TxBNfk_iXKN2kF-88" value="rdfs:subClassOf" style="text;align=center;verticalAlign=middle;resizable=0;points=[];labelBackgroundColor=#ffffff;" parent="IQOuE0TxBNfk_iXKN2kF-14" vertex="1" connectable="0">
          <mxGeometry x="0.2476" y="18" relative="1" as="geometry">
            <mxPoint x="166.66999999999996" y="76" as="offset" />
          </mxGeometry>
        </mxCell>
        <mxCell id="IQOuE0TxBNfk_iXKN2kF-15" style="edgeStyle=orthogonalEdgeStyle;curved=1;comic=0;orthogonalLoop=1;jettySize=auto;html=1;shadow=0;startArrow=classic;startFill=1;endArrow=none;endFill=0;dashed=1;" parent="1" source="EgX6zlfz2IxhlC0AGUEL-16" target="EgX6zlfz2IxhlC0AGUEL-10" edge="1">
          <mxGeometry relative="1" as="geometry" />
        </mxCell>
        <mxCell id="IQOuE0TxBNfk_iXKN2kF-89" value="rdfs:subClassOf" style="text;align=center;verticalAlign=middle;resizable=0;points=[];labelBackgroundColor=#ffffff;labelBorderColor=none;fontColor=#000000;rotation=0;" parent="IQOuE0TxBNfk_iXKN2kF-15" vertex="1" connectable="0">
          <mxGeometry x="0.5021" y="43" relative="1" as="geometry">
            <mxPoint x="28.000000000000007" y="191.01000000000002" as="offset" />
          </mxGeometry>
        </mxCell>
        <mxCell id="IQOuE0TxBNfk_iXKN2kF-16" style="edgeStyle=orthogonalEdgeStyle;curved=1;comic=0;orthogonalLoop=1;jettySize=auto;html=1;entryX=-0.022;entryY=0.398;entryDx=0;entryDy=0;shadow=0;startArrow=classic;startFill=1;endArrow=none;endFill=0;dashed=1;entryPerimeter=0;" parent="1" source="EgX6zlfz2IxhlC0AGUEL-16" target="EgX6zlfz2IxhlC0AGUEL-8" edge="1">
          <mxGeometry relative="1" as="geometry">
            <Array as="points">
              <mxPoint x="-450" y="136" />
              <mxPoint x="-450" y="507" />
            </Array>
          </mxGeometry>
        </mxCell>
        <mxCell id="IQOuE0TxBNfk_iXKN2kF-91" value="&lt;span style=&quot;color: rgba(0 , 0 , 0 , 0) ; font-family: monospace ; font-size: 0px ; background-color: rgb(248 , 249 , 250)&quot;&gt;%3CmxGraphModel%3E%3Croot%3E%3CmxCell%20id%3D%220%22%2F%3E%3CmxCell%20id%3D%221%22%20parent%3D%220%22%2F%3E%3CmxCell%20id%3D%222%22%20value%3D%22rdfs%3AsubClassOf%22%20style%3D%22text%3Balign%3Dcenter%3BverticalAlign%3Dmiddle%3Bresizable%3D0%3Bpoints%3D%5B%5D%3BlabelBackgroundColor%3D%23ffffff%3BlabelBorderColor%3Dnone%3B%22%20vertex%3D%221%22%20connectable%3D%220%22%20parent%3D%221%22%3E%3CmxGeometry%20x%3D%22-372.9970588235292%22%20y%3D%22100%22%20as%3D%22geometry%22%3E%3CmxPoint%20x%3D%2224.65%22%20y%3D%22-3%22%20as%3D%22offset%22%2F%3E%3C%2FmxGeometry%3E%3C%2FmxCell%3E%3C%2Froot%3E%3C%2FmxGraphModel%3E&lt;/span&gt;&lt;span style=&quot;color: rgba(0 , 0 , 0 , 0) ; font-family: monospace ; font-size: 0px ; background-color: rgb(248 , 249 , 250)&quot;&gt;%3CmxGraphModel%3E%3Croot%3E%3CmxCell%20id%3D%220%22%2F%3E%3CmxCell%20id%3D%221%22%20parent%3D%220%22%2F%3E%3CmxCell%20id%3D%222%22%20value%3D%22rdfs%3AsubClassOf%22%20style%3D%22text%3Balign%3Dcenter%3BverticalAlign%3Dmiddle%3Bresizable%3D0%3Bpoints%3D%5B%5D%3BlabelBackgroundColor%3D%23ffffff%3BlabelBorderColor%3Dnone%3B%22%20vertex%3D%221%22%20connectable%3D%220%22%20parent%3D%221%22%3E%3CmxGeometry%20x%3D%22-372.9970588235292%22%20y%3D%22100%22%20as%3D%22geometry%22%3E%3CmxPoint%20x%3D%2224.65%22%20y%3D%22-3%22%20as%3D%22offset%22%2F%3E%3C%2FmxGeometry%3E%3C%2FmxCell%3E%3C%2Froot%3E%3C%2FmxGraphModel%3E&lt;/span&gt;" style="text;html=1;align=center;verticalAlign=middle;resizable=0;points=[];labelBackgroundColor=#ffffff;fontColor=#000000;" parent="IQOuE0TxBNfk_iXKN2kF-16" vertex="1" connectable="0">
          <mxGeometry x="-0.0207" y="103" relative="1" as="geometry">
            <mxPoint x="1" as="offset" />
          </mxGeometry>
        </mxCell>
        <mxCell id="IQOuE0TxBNfk_iXKN2kF-92" value="rdfs:subClassOf" style="text;html=1;align=center;verticalAlign=middle;resizable=0;points=[];labelBackgroundColor=#ffffff;fontColor=#000000;" parent="IQOuE0TxBNfk_iXKN2kF-16" vertex="1" connectable="0">
          <mxGeometry x="-0.035" y="98" relative="1" as="geometry">
            <mxPoint x="-148.33" y="76" as="offset" />
          </mxGeometry>
        </mxCell>
        <mxCell id="EgX6zlfz2IxhlC0AGUEL-16" value="owl:Thing" style="ellipse;whiteSpace=wrap;html=1;aspect=fixed;shadow=0;" parent="1" vertex="1">
          <mxGeometry x="120" y="96" width="80" height="80" as="geometry" />
        </mxCell>
        <mxCell id="IQOuE0TxBNfk_iXKN2kF-2" style="edgeStyle=orthogonalEdgeStyle;curved=1;comic=0;orthogonalLoop=1;jettySize=auto;html=1;exitX=0.5;exitY=1;exitDx=0;exitDy=0;shadow=0;startArrow=classic;startFill=1;endArrow=none;endFill=0;dashed=1;" parent="1" source="EgX6zlfz2IxhlC0AGUEL-25" target="EgX6zlfz2IxhlC0AGUEL-38" edge="1">
          <mxGeometry relative="1" as="geometry" />
        </mxCell>
        <mxCell id="IQOuE0TxBNfk_iXKN2kF-122" value="rdfs:subClassOf" style="text;html=1;align=center;verticalAlign=middle;resizable=0;points=[];labelBackgroundColor=#ffffff;fontColor=#000000;" parent="IQOuE0TxBNfk_iXKN2kF-2" vertex="1" connectable="0">
          <mxGeometry x="-0.1658" y="1" relative="1" as="geometry">
            <mxPoint as="offset" />
          </mxGeometry>
        </mxCell>
        <mxCell id="EgX6zlfz2IxhlC0AGUEL-25" value="sbeo:Incident&lt;br&gt;Protection" style="ellipse;whiteSpace=wrap;html=1;aspect=fixed;fillColor=#dae8fc;strokeColor=#6c8ebf;shadow=0;" parent="1" vertex="1">
          <mxGeometry x="40" y="446" width="80" height="80" as="geometry" />
        </mxCell>
        <mxCell id="EgX6zlfz2IxhlC0AGUEL-68" style="edgeStyle=orthogonalEdgeStyle;curved=1;comic=0;orthogonalLoop=1;jettySize=auto;html=1;shadow=0;startArrow=classic;startFill=1;endArrow=none;endFill=0;dashed=1;exitX=1;exitY=0.5;exitDx=0;exitDy=0;" parent="1" source="EgX6zlfz2IxhlC0AGUEL-26" target="EgX6zlfz2IxhlC0AGUEL-27" edge="1">
          <mxGeometry relative="1" as="geometry" />
        </mxCell>
        <mxCell id="IQOuE0TxBNfk_iXKN2kF-135" value="rdfs:subClassOf" style="text;html=1;align=center;verticalAlign=middle;resizable=0;points=[];labelBackgroundColor=#ffffff;fontColor=#000000;" parent="EgX6zlfz2IxhlC0AGUEL-68" vertex="1" connectable="0">
          <mxGeometry x="-0.3157" y="-24" relative="1" as="geometry">
            <mxPoint x="24" y="35.239999999999995" as="offset" />
          </mxGeometry>
        </mxCell>
        <mxCell id="EgX6zlfz2IxhlC0AGUEL-26" value="seas:Building&lt;br&gt;Space" style="ellipse;whiteSpace=wrap;html=1;aspect=fixed;fillColor=#1ba1e2;strokeColor=#006EAF;fontColor=#ffffff;shadow=0;" parent="1" vertex="1">
          <mxGeometry x="320" y="370.9999999999998" width="80" height="80" as="geometry" />
        </mxCell>
        <mxCell id="EgX6zlfz2IxhlC0AGUEL-69" style="edgeStyle=orthogonalEdgeStyle;curved=1;comic=0;orthogonalLoop=1;jettySize=auto;html=1;exitX=0.5;exitY=1;exitDx=0;exitDy=0;shadow=0;startArrow=classic;startFill=1;endArrow=none;endFill=0;entryX=0.5;entryY=0;entryDx=0;entryDy=0;dashed=1;" parent="1" source="EgX6zlfz2IxhlC0AGUEL-27" target="EgX6zlfz2IxhlC0AGUEL-28" edge="1">
          <mxGeometry relative="1" as="geometry">
            <Array as="points" />
          </mxGeometry>
        </mxCell>
        <mxCell id="yLDOqc1vmUTKO-x5eXoO-11" value="rdfs:subClassOf" style="text;html=1;align=center;verticalAlign=middle;resizable=0;points=[];labelBackgroundColor=#ffffff;" parent="EgX6zlfz2IxhlC0AGUEL-69" vertex="1" connectable="0">
          <mxGeometry x="0.2131" y="1" relative="1" as="geometry">
            <mxPoint x="-1" y="-5.070000000000004" as="offset" />
          </mxGeometry>
        </mxCell>
        <mxCell id="EgX6zlfz2IxhlC0AGUEL-70" style="edgeStyle=orthogonalEdgeStyle;curved=1;comic=0;orthogonalLoop=1;jettySize=auto;html=1;entryX=0.454;entryY=0.012;entryDx=0;entryDy=0;shadow=0;startArrow=classic;startFill=1;endArrow=none;endFill=0;dashed=1;exitX=1;exitY=0.5;exitDx=0;exitDy=0;entryPerimeter=0;" parent="1" source="EgX6zlfz2IxhlC0AGUEL-27" target="EgX6zlfz2IxhlC0AGUEL-29" edge="1">
          <mxGeometry relative="1" as="geometry">
            <Array as="points">
              <mxPoint x="540" y="541" />
              <mxPoint x="540" y="635" />
            </Array>
          </mxGeometry>
        </mxCell>
        <mxCell id="IQOuE0TxBNfk_iXKN2kF-133" value="rdfs:subClassOf" style="text;html=1;align=center;verticalAlign=middle;resizable=0;points=[];labelBackgroundColor=#ffffff;fontColor=#000000;" parent="EgX6zlfz2IxhlC0AGUEL-70" vertex="1" connectable="0">
          <mxGeometry x="-0.1822" y="-30" relative="1" as="geometry">
            <mxPoint x="32.99999999999999" y="67.93" as="offset" />
          </mxGeometry>
        </mxCell>
        <mxCell id="EgX6zlfz2IxhlC0AGUEL-27" value="seas:Room" style="ellipse;whiteSpace=wrap;html=1;aspect=fixed;fillColor=#1ba1e2;strokeColor=#006EAF;fontColor=#ffffff;shadow=0;" parent="1" vertex="1">
          <mxGeometry x="400" y="500.9999999999998" width="80" height="80" as="geometry" />
        </mxCell>
        <mxCell id="EgX6zlfz2IxhlC0AGUEL-28" value="sbeo:DayCare" style="ellipse;whiteSpace=wrap;html=1;aspect=fixed;fillColor=#dae8fc;strokeColor=#6c8ebf;shadow=0;" parent="1" vertex="1">
          <mxGeometry x="400" y="653.0000000000001" width="80" height="80" as="geometry" />
        </mxCell>
        <mxCell id="EgX6zlfz2IxhlC0AGUEL-29" value="sbeo:KidsArea" style="ellipse;whiteSpace=wrap;html=1;aspect=fixed;fillColor=#dae8fc;strokeColor=#6c8ebf;shadow=0;" parent="1" vertex="1">
          <mxGeometry x="503" y="654" width="80" height="80" as="geometry" />
        </mxCell>
        <mxCell id="IQOuE0TxBNfk_iXKN2kF-9" style="edgeStyle=orthogonalEdgeStyle;curved=1;comic=0;orthogonalLoop=1;jettySize=auto;html=1;shadow=0;startArrow=classic;startFill=1;endArrow=none;endFill=0;dashed=1;" parent="1" source="EgX6zlfz2IxhlC0AGUEL-37" target="EgX6zlfz2IxhlC0AGUEL-42" edge="1">
          <mxGeometry relative="1" as="geometry">
            <Array as="points">
              <mxPoint x="183" y="556" />
              <mxPoint x="150" y="556" />
            </Array>
          </mxGeometry>
        </mxCell>
        <mxCell id="IQOuE0TxBNfk_iXKN2kF-125" value="rdfs:subClassOf" style="text;html=1;align=center;verticalAlign=middle;resizable=0;points=[];labelBackgroundColor=#ffffff;fontColor=#000000;" parent="IQOuE0TxBNfk_iXKN2kF-9" vertex="1" connectable="0">
          <mxGeometry x="0.2353" y="7" relative="1" as="geometry">
            <mxPoint x="-7" y="23.93" as="offset" />
          </mxGeometry>
        </mxCell>
        <mxCell id="IQOuE0TxBNfk_iXKN2kF-10" style="edgeStyle=orthogonalEdgeStyle;curved=1;comic=0;orthogonalLoop=1;jettySize=auto;html=1;exitX=0.5;exitY=1;exitDx=0;exitDy=0;shadow=0;startArrow=classic;startFill=1;endArrow=none;endFill=0;dashed=1;" parent="1" source="EgX6zlfz2IxhlC0AGUEL-37" target="EgX6zlfz2IxhlC0AGUEL-41" edge="1">
          <mxGeometry relative="1" as="geometry">
            <Array as="points">
              <mxPoint x="183" y="556" />
              <mxPoint x="251" y="556" />
            </Array>
          </mxGeometry>
        </mxCell>
        <mxCell id="IQOuE0TxBNfk_iXKN2kF-124" value="rdfs:subClassOf" style="text;html=1;align=center;verticalAlign=middle;resizable=0;points=[];labelBackgroundColor=#ffffff;fontColor=#000000;" parent="IQOuE0TxBNfk_iXKN2kF-10" vertex="1" connectable="0">
          <mxGeometry x="0.4366" y="-10" relative="1" as="geometry">
            <mxPoint x="10" y="22.93" as="offset" />
          </mxGeometry>
        </mxCell>
        <mxCell id="IQOuE0TxBNfk_iXKN2kF-11" style="edgeStyle=orthogonalEdgeStyle;curved=1;comic=0;orthogonalLoop=1;jettySize=auto;html=1;entryX=0.5;entryY=0;entryDx=0;entryDy=0;shadow=0;startArrow=classic;startFill=1;endArrow=none;endFill=0;exitX=0.5;exitY=1;exitDx=0;exitDy=0;dashed=1;" parent="1" source="EgX6zlfz2IxhlC0AGUEL-37" target="EgX6zlfz2IxhlC0AGUEL-40" edge="1">
          <mxGeometry relative="1" as="geometry">
            <Array as="points">
              <mxPoint x="183" y="556" />
              <mxPoint x="350" y="556" />
            </Array>
          </mxGeometry>
        </mxCell>
        <mxCell id="IQOuE0TxBNfk_iXKN2kF-123" value="rdfs:subClassOf" style="text;html=1;align=center;verticalAlign=middle;resizable=0;points=[];labelBackgroundColor=#ffffff;fontColor=#000000;" parent="IQOuE0TxBNfk_iXKN2kF-11" vertex="1" connectable="0">
          <mxGeometry x="0.4014" y="1" relative="1" as="geometry">
            <mxPoint x="21.999999999999996" y="33.93" as="offset" />
          </mxGeometry>
        </mxCell>
        <mxCell id="IQOuE0TxBNfk_iXKN2kF-211" style="edgeStyle=orthogonalEdgeStyle;curved=1;comic=0;orthogonalLoop=1;jettySize=auto;html=1;entryX=0.5;entryY=1;entryDx=0;entryDy=0;shadow=0;startArrow=none;startFill=0;endArrow=classic;endFill=1;fontColor=#000000;exitX=0.993;exitY=0.46;exitDx=0;exitDy=0;exitPerimeter=0;" parent="1" source="EgX6zlfz2IxhlC0AGUEL-37" target="IQOuE0TxBNfk_iXKN2kF-208" edge="1">
          <mxGeometry relative="1" as="geometry">
            <Array as="points">
              <mxPoint x="243" y="483" />
              <mxPoint x="243" y="410" />
              <mxPoint x="239" y="410" />
            </Array>
          </mxGeometry>
        </mxCell>
        <mxCell id="IQOuE0TxBNfk_iXKN2kF-212" value="&lt;span style=&quot;background-color: rgb(102 , 255 , 102)&quot;&gt;sbeo:atTime&lt;/span&gt;" style="text;html=1;align=center;verticalAlign=middle;resizable=0;points=[];labelBackgroundColor=#ffffff;" parent="IQOuE0TxBNfk_iXKN2kF-211" vertex="1" connectable="0">
          <mxGeometry x="-0.2415" y="-7" relative="1" as="geometry">
            <mxPoint x="-11" y="-46.96" as="offset" />
          </mxGeometry>
        </mxCell>
        <mxCell id="EgX6zlfz2IxhlC0AGUEL-37" value="sbeo:Sensor" style="ellipse;whiteSpace=wrap;html=1;aspect=fixed;fillColor=#dae8fc;strokeColor=#6c8ebf;shadow=0;" parent="1" vertex="1">
          <mxGeometry x="143" y="446" width="80" height="80" as="geometry" />
        </mxCell>
        <mxCell id="IQOuE0TxBNfk_iXKN2kF-3" style="edgeStyle=orthogonalEdgeStyle;curved=1;comic=0;orthogonalLoop=1;jettySize=auto;html=1;exitX=0;exitY=0.5;exitDx=0;exitDy=0;shadow=0;startArrow=classic;startFill=1;endArrow=none;endFill=0;dashed=1;entryX=1;entryY=0;entryDx=0;entryDy=0;" parent="1" source="EgX6zlfz2IxhlC0AGUEL-38" target="EgX6zlfz2IxhlC0AGUEL-45" edge="1">
          <mxGeometry relative="1" as="geometry">
            <Array as="points">
              <mxPoint x="-20" y="600" />
              <mxPoint x="-20" y="666" />
            </Array>
          </mxGeometry>
        </mxCell>
        <mxCell id="IQOuE0TxBNfk_iXKN2kF-118" value="rdfs:subClassOf" style="text;html=1;align=center;verticalAlign=middle;resizable=0;points=[];labelBackgroundColor=#ffffff;fontColor=#000000;" parent="IQOuE0TxBNfk_iXKN2kF-3" vertex="1" connectable="0">
          <mxGeometry x="-0.3578" y="-8" relative="1" as="geometry">
            <mxPoint x="8" y="29.310000000000002" as="offset" />
          </mxGeometry>
        </mxCell>
        <mxCell id="IQOuE0TxBNfk_iXKN2kF-4" style="edgeStyle=orthogonalEdgeStyle;curved=1;comic=0;orthogonalLoop=1;jettySize=auto;html=1;shadow=0;startArrow=classic;startFill=1;endArrow=none;endFill=0;exitX=0.5;exitY=1;exitDx=0;exitDy=0;dashed=1;entryX=0.5;entryY=0;entryDx=0;entryDy=0;" parent="1" source="EgX6zlfz2IxhlC0AGUEL-38" target="EgX6zlfz2IxhlC0AGUEL-46" edge="1">
          <mxGeometry relative="1" as="geometry">
            <Array as="points">
              <mxPoint x="60" y="640" />
              <mxPoint x="60" y="711" />
            </Array>
          </mxGeometry>
        </mxCell>
        <mxCell id="IQOuE0TxBNfk_iXKN2kF-117" value="rdfs:subClassOf" style="text;html=1;align=center;verticalAlign=middle;resizable=0;points=[];labelBackgroundColor=#ffffff;fontColor=#000000;" parent="IQOuE0TxBNfk_iXKN2kF-4" vertex="1" connectable="0">
          <mxGeometry x="0.4105" y="-10" relative="1" as="geometry">
            <mxPoint x="10" y="-12.2" as="offset" />
          </mxGeometry>
        </mxCell>
        <mxCell id="EgX6zlfz2IxhlC0AGUEL-38" value="sbeo:Fire&lt;br&gt;Protection" style="ellipse;whiteSpace=wrap;html=1;aspect=fixed;fillColor=#dae8fc;strokeColor=#6c8ebf;shadow=0;" parent="1" vertex="1">
          <mxGeometry x="20" y="559.9300000000001" width="80" height="80" as="geometry" />
        </mxCell>
        <mxCell id="EgX6zlfz2IxhlC0AGUEL-40" value="&lt;span style=&quot;white-space: normal&quot;&gt;sbeo:Temperature&lt;br&gt;Sensor&lt;br&gt;&lt;/span&gt;" style="ellipse;whiteSpace=wrap;html=1;aspect=fixed;fillColor=#dae8fc;strokeColor=#6c8ebf;shadow=0;" parent="1" vertex="1">
          <mxGeometry x="310" y="608.93" width="80" height="80" as="geometry" />
        </mxCell>
        <mxCell id="EgX6zlfz2IxhlC0AGUEL-41" value="&lt;span style=&quot;white-space: normal&quot;&gt;sbeo:Smoke&lt;br&gt;Sensor&lt;/span&gt;" style="ellipse;whiteSpace=wrap;html=1;aspect=fixed;fillColor=#dae8fc;strokeColor=#6c8ebf;shadow=0;" parent="1" vertex="1">
          <mxGeometry x="211" y="608.93" width="80" height="80" as="geometry" />
        </mxCell>
        <mxCell id="EgX6zlfz2IxhlC0AGUEL-42" value="&lt;span style=&quot;white-space: normal&quot;&gt;sbeo:Location&lt;br&gt;Sensor&lt;/span&gt;" style="ellipse;whiteSpace=wrap;html=1;aspect=fixed;fillColor=#dae8fc;strokeColor=#6c8ebf;shadow=0;" parent="1" vertex="1">
          <mxGeometry x="110" y="608.93" width="80" height="80" as="geometry" />
        </mxCell>
        <mxCell id="EgX6zlfz2IxhlC0AGUEL-43" value="&lt;span style=&quot;white-space: normal&quot;&gt;sbeo:FireDoor&lt;/span&gt;" style="ellipse;whiteSpace=wrap;html=1;aspect=fixed;fillColor=#dae8fc;strokeColor=#6c8ebf;shadow=0;" parent="1" vertex="1">
          <mxGeometry x="-70.13999999999999" y="810.9999999999999" width="80" height="80" as="geometry" />
        </mxCell>
        <mxCell id="EgX6zlfz2IxhlC0AGUEL-44" value="&lt;span style=&quot;white-space: normal&quot;&gt;sbeo:Fire&lt;br&gt;Extinguisher&lt;br&gt;&lt;/span&gt;" style="ellipse;whiteSpace=wrap;html=1;aspect=fixed;fillColor=#dae8fc;strokeColor=#6c8ebf;shadow=0;" parent="1" vertex="1">
          <mxGeometry x="-172" y="811" width="80" height="80" as="geometry" />
        </mxCell>
        <mxCell id="IQOuE0TxBNfk_iXKN2kF-6" style="edgeStyle=orthogonalEdgeStyle;curved=1;comic=0;orthogonalLoop=1;jettySize=auto;html=1;shadow=0;startArrow=classic;startFill=1;endArrow=none;endFill=0;dashed=1;" parent="1" source="EgX6zlfz2IxhlC0AGUEL-45" target="EgX6zlfz2IxhlC0AGUEL-44" edge="1">
          <mxGeometry relative="1" as="geometry" />
        </mxCell>
        <mxCell id="IQOuE0TxBNfk_iXKN2kF-120" value="rdfs:subClassOf" style="text;html=1;align=center;verticalAlign=middle;resizable=0;points=[];labelBackgroundColor=#ffffff;fontColor=#000000;" parent="IQOuE0TxBNfk_iXKN2kF-6" vertex="1" connectable="0">
          <mxGeometry x="-0.3157" y="2" relative="1" as="geometry">
            <mxPoint x="-40.64" y="5.500000000000001" as="offset" />
          </mxGeometry>
        </mxCell>
        <mxCell id="EgX6zlfz2IxhlC0AGUEL-45" value="&lt;span style=&quot;white-space: normal&quot;&gt;sbeo:Passive&lt;br&gt;FrieProtection&lt;br&gt;&lt;/span&gt;" style="ellipse;whiteSpace=wrap;html=1;aspect=fixed;fillColor=#dae8fc;strokeColor=#6c8ebf;shadow=0;" parent="1" vertex="1">
          <mxGeometry x="-110" y="654" width="80" height="80" as="geometry" />
        </mxCell>
        <mxCell id="IQOuE0TxBNfk_iXKN2kF-5" style="edgeStyle=orthogonalEdgeStyle;curved=1;comic=0;orthogonalLoop=1;jettySize=auto;html=1;entryX=0.5;entryY=0;entryDx=0;entryDy=0;shadow=0;startArrow=classic;startFill=1;endArrow=none;endFill=0;dashed=1;" parent="1" source="EgX6zlfz2IxhlC0AGUEL-46" target="EgX6zlfz2IxhlC0AGUEL-43" edge="1">
          <mxGeometry relative="1" as="geometry" />
        </mxCell>
        <mxCell id="IQOuE0TxBNfk_iXKN2kF-119" value="rdfs:subClassOf" style="text;html=1;align=center;verticalAlign=middle;resizable=0;points=[];labelBackgroundColor=#ffffff;fontColor=#000000;" parent="IQOuE0TxBNfk_iXKN2kF-5" vertex="1" connectable="0">
          <mxGeometry x="-0.2176" y="-2" relative="1" as="geometry">
            <mxPoint x="2.759999999999998" y="32.21" as="offset" />
          </mxGeometry>
        </mxCell>
        <mxCell id="EgX6zlfz2IxhlC0AGUEL-46" value="&lt;span style=&quot;white-space: normal&quot;&gt;sbeo:Active&lt;br&gt;FireProtection&lt;/span&gt;" style="ellipse;whiteSpace=wrap;html=1;aspect=fixed;fillColor=#dae8fc;strokeColor=#6c8ebf;shadow=0;" parent="1" vertex="1">
          <mxGeometry x="20" y="711" width="80" height="80" as="geometry" />
        </mxCell>
        <mxCell id="IQOuE0TxBNfk_iXKN2kF-324" style="edgeStyle=orthogonalEdgeStyle;curved=1;comic=0;orthogonalLoop=1;jettySize=auto;html=1;entryX=1;entryY=0.5;entryDx=0;entryDy=0;shadow=0;startArrow=none;startFill=0;endArrow=classic;endFill=1;fontColor=#000000;exitX=0;exitY=0.5;exitDx=0;exitDy=0;" parent="1" source="IQOuE0TxBNfk_iXKN2kF-13" target="EgX6zlfz2IxhlC0AGUEL-6" edge="1">
          <mxGeometry relative="1" as="geometry">
            <Array as="points">
              <mxPoint x="880" y="264" />
              <mxPoint x="840" y="264" />
            </Array>
          </mxGeometry>
        </mxCell>
        <mxCell id="IQOuE0TxBNfk_iXKN2kF-328" value="&lt;span style=&quot;background-color: rgb(102 , 255 , 255)&quot;&gt;sbeo:distanceOf&lt;/span&gt;" style="text;html=1;align=center;verticalAlign=middle;resizable=0;points=[];labelBackgroundColor=#ffffff;" parent="IQOuE0TxBNfk_iXKN2kF-324" vertex="1" connectable="0">
          <mxGeometry x="0.0545" y="-2" relative="1" as="geometry">
            <mxPoint x="-47.99999999999999" y="-12.500000000000002" as="offset" />
          </mxGeometry>
        </mxCell>
        <mxCell id="IQOuE0TxBNfk_iXKN2kF-325" style="edgeStyle=orthogonalEdgeStyle;curved=1;comic=0;orthogonalLoop=1;jettySize=auto;html=1;entryX=1;entryY=0.5;entryDx=0;entryDy=0;shadow=0;startArrow=none;startFill=0;endArrow=classic;endFill=1;fontColor=#000000;exitX=0.5;exitY=1;exitDx=0;exitDy=0;" parent="1" source="IQOuE0TxBNfk_iXKN2kF-13" target="EgX6zlfz2IxhlC0AGUEL-14" edge="1">
          <mxGeometry relative="1" as="geometry">
            <Array as="points">
              <mxPoint x="870" y="304" />
              <mxPoint x="870" y="576" />
              <mxPoint x="570" y="576" />
              <mxPoint x="570" y="264" />
            </Array>
          </mxGeometry>
        </mxCell>
        <mxCell id="IQOuE0TxBNfk_iXKN2kF-329" value="&lt;span style=&quot;background-color: rgb(102 , 255 , 255)&quot;&gt;sbeo:distanceOf&lt;/span&gt;" style="text;html=1;align=center;verticalAlign=middle;resizable=0;points=[];labelBackgroundColor=#ffffff;" parent="IQOuE0TxBNfk_iXKN2kF-325" vertex="1" connectable="0">
          <mxGeometry x="0.0525" y="-2" relative="1" as="geometry">
            <mxPoint x="59.83000000000001" y="1.9699999999999998" as="offset" />
          </mxGeometry>
        </mxCell>
        <mxCell id="IQOuE0TxBNfk_iXKN2kF-326" style="edgeStyle=orthogonalEdgeStyle;curved=1;comic=0;orthogonalLoop=1;jettySize=auto;html=1;exitX=1;exitY=0.5;exitDx=0;exitDy=0;entryX=0;entryY=0.5;entryDx=0;entryDy=0;shadow=0;startArrow=none;startFill=0;endArrow=classic;endFill=1;fontColor=#000000;" parent="1" source="IQOuE0TxBNfk_iXKN2kF-13" target="IQOuE0TxBNfk_iXKN2kF-73" edge="1">
          <mxGeometry relative="1" as="geometry" />
        </mxCell>
        <mxCell id="yLDOqc1vmUTKO-x5eXoO-6" value="&lt;span style=&quot;background-color: rgb(102 , 255 , 255)&quot;&gt;sbeo:distanceOf&lt;/span&gt;" style="text;html=1;align=center;verticalAlign=middle;resizable=0;points=[];labelBackgroundColor=#ffffff;" parent="IQOuE0TxBNfk_iXKN2kF-326" vertex="1" connectable="0">
          <mxGeometry x="0.7483" y="1" relative="1" as="geometry">
            <mxPoint x="3.4999999999999947" y="-91" as="offset" />
          </mxGeometry>
        </mxCell>
        <mxCell id="IQOuE0TxBNfk_iXKN2kF-327" style="edgeStyle=orthogonalEdgeStyle;curved=1;comic=0;orthogonalLoop=1;jettySize=auto;html=1;entryX=0;entryY=0.5;entryDx=0;entryDy=0;shadow=0;startArrow=none;startFill=0;endArrow=classic;endFill=1;fontColor=#000000;exitX=0.5;exitY=1;exitDx=0;exitDy=0;" parent="1" source="IQOuE0TxBNfk_iXKN2kF-13" target="IQOuE0TxBNfk_iXKN2kF-72" edge="1">
          <mxGeometry relative="1" as="geometry">
            <Array as="points">
              <mxPoint x="900" y="304" />
              <mxPoint x="900" y="511" />
            </Array>
          </mxGeometry>
        </mxCell>
        <mxCell id="IQOuE0TxBNfk_iXKN2kF-330" value="&lt;span style=&quot;background-color: rgb(102 , 255 , 255)&quot;&gt;sbeo:distanceOf&lt;/span&gt;" style="text;html=1;align=center;verticalAlign=middle;resizable=0;points=[];labelBackgroundColor=#ffffff;" parent="IQOuE0TxBNfk_iXKN2kF-327" vertex="1" connectable="0">
          <mxGeometry x="-0.6436" y="12" relative="1" as="geometry">
            <mxPoint x="16.99" y="129.4" as="offset" />
          </mxGeometry>
        </mxCell>
        <mxCell id="IQOuE0TxBNfk_iXKN2kF-13" value="&lt;span style=&quot;white-space: normal&quot;&gt;sbeo:Distance&lt;/span&gt;" style="ellipse;whiteSpace=wrap;html=1;aspect=fixed;fillColor=#dae8fc;strokeColor=#6c8ebf;shadow=0;" parent="1" vertex="1">
          <mxGeometry x="822" y="223.5" width="80" height="80" as="geometry" />
        </mxCell>
        <mxCell id="IQOuE0TxBNfk_iXKN2kF-17" value="&lt;span style=&quot;white-space: normal&quot;&gt;sbeo:Terrorist&lt;br&gt;Attack&lt;/span&gt;" style="ellipse;whiteSpace=wrap;html=1;aspect=fixed;fillColor=#dae8fc;strokeColor=#6c8ebf;shadow=0;" parent="1" vertex="1">
          <mxGeometry x="-290" y="316" width="80" height="80" as="geometry" />
        </mxCell>
        <mxCell id="IQOuE0TxBNfk_iXKN2kF-18" value="&lt;span style=&quot;white-space: normal&quot;&gt;sbeo:Stempeding&lt;/span&gt;" style="ellipse;whiteSpace=wrap;html=1;aspect=fixed;fillColor=#dae8fc;strokeColor=#6c8ebf;shadow=0;" parent="1" vertex="1">
          <mxGeometry x="-130" y="546" width="80" height="80" as="geometry" />
        </mxCell>
        <mxCell id="IQOuE0TxBNfk_iXKN2kF-30" style="edgeStyle=orthogonalEdgeStyle;curved=1;comic=0;orthogonalLoop=1;jettySize=auto;html=1;entryX=0.5;entryY=0;entryDx=0;entryDy=0;shadow=0;startArrow=classic;startFill=1;endArrow=none;endFill=0;dashed=1;" parent="1" source="IQOuE0TxBNfk_iXKN2kF-19" target="IQOuE0TxBNfk_iXKN2kF-18" edge="1">
          <mxGeometry relative="1" as="geometry" />
        </mxCell>
        <mxCell id="IQOuE0TxBNfk_iXKN2kF-131" value="rdfs:subClassOf" style="text;html=1;align=center;verticalAlign=middle;resizable=0;points=[];labelBackgroundColor=#ffffff;fontColor=#000000;" parent="IQOuE0TxBNfk_iXKN2kF-30" vertex="1" connectable="0">
          <mxGeometry x="-0.4974" y="-6" relative="1" as="geometry">
            <mxPoint x="-48.54" y="12.5" as="offset" />
          </mxGeometry>
        </mxCell>
        <mxCell id="IQOuE0TxBNfk_iXKN2kF-19" value="&lt;span style=&quot;white-space: normal&quot;&gt;sbeo:Panic&lt;/span&gt;" style="ellipse;whiteSpace=wrap;html=1;aspect=fixed;fillColor=#dae8fc;strokeColor=#6c8ebf;shadow=0;" parent="1" vertex="1">
          <mxGeometry x="-70.14" y="413" width="80" height="80" as="geometry" />
        </mxCell>
        <mxCell id="IQOuE0TxBNfk_iXKN2kF-20" value="sbeo:Fire" style="ellipse;whiteSpace=wrap;html=1;aspect=fixed;fillColor=#dae8fc;strokeColor=#6c8ebf;shadow=0;" parent="1" vertex="1">
          <mxGeometry x="-160.14" y="421" width="80" height="80" as="geometry" />
        </mxCell>
        <mxCell id="IQOuE0TxBNfk_iXKN2kF-22" value="&lt;span style=&quot;white-space: normal&quot;&gt;sbeo:Congestion&lt;/span&gt;" style="ellipse;whiteSpace=wrap;html=1;aspect=fixed;fillColor=#dae8fc;strokeColor=#6c8ebf;shadow=0;" parent="1" vertex="1">
          <mxGeometry x="-230" y="371" width="80" height="80" as="geometry" />
        </mxCell>
        <mxCell id="IQOuE0TxBNfk_iXKN2kF-23" value="&lt;span style=&quot;white-space: normal&quot;&gt;sbeo:Chemcial&lt;br&gt;Spill&lt;/span&gt;" style="ellipse;whiteSpace=wrap;html=1;aspect=fixed;fillColor=#dae8fc;strokeColor=#6c8ebf;shadow=0;" parent="1" vertex="1">
          <mxGeometry x="-340" y="241" width="80" height="80" as="geometry" />
        </mxCell>
        <mxCell id="IQOuE0TxBNfk_iXKN2kF-32" value="&lt;span style=&quot;white-space: normal&quot;&gt;sbeo:Dependent&lt;/span&gt;" style="ellipse;whiteSpace=wrap;html=1;aspect=fixed;fillColor=#dae8fc;strokeColor=#6c8ebf;shadow=0;" parent="1" vertex="1">
          <mxGeometry x="-851" y="678.07" width="80" height="80" as="geometry" />
        </mxCell>
        <mxCell id="IQOuE0TxBNfk_iXKN2kF-33" value="sbeo:Visual" style="ellipse;whiteSpace=wrap;html=1;aspect=fixed;fillColor=#dae8fc;strokeColor=#6c8ebf;shadow=0;" parent="1" vertex="1">
          <mxGeometry x="-951" y="640" width="80" height="80" as="geometry" />
        </mxCell>
        <mxCell id="IQOuE0TxBNfk_iXKN2kF-34" value="&lt;span style=&quot;white-space: normal&quot;&gt;sbeo:Hearing&lt;/span&gt;" style="ellipse;whiteSpace=wrap;html=1;aspect=fixed;fillColor=#dae8fc;strokeColor=#6c8ebf;shadow=0;" parent="1" vertex="1">
          <mxGeometry x="-1041" y="640" width="80" height="80" as="geometry" />
        </mxCell>
        <mxCell id="IQOuE0TxBNfk_iXKN2kF-35" value="&lt;span style=&quot;white-space: normal&quot;&gt;sbeo:Non-Motorised&lt;/span&gt;" style="ellipse;whiteSpace=wrap;html=1;aspect=fixed;fillColor=#dae8fc;strokeColor=#6c8ebf;shadow=0;" parent="1" vertex="1">
          <mxGeometry x="-1141" y="642.07" width="80" height="80" as="geometry" />
        </mxCell>
        <mxCell id="IQOuE0TxBNfk_iXKN2kF-36" value="&lt;span style=&quot;white-space: normal&quot;&gt;sbeo:Motorised&lt;/span&gt;" style="ellipse;whiteSpace=wrap;html=1;aspect=fixed;fillColor=#dae8fc;strokeColor=#6c8ebf;shadow=0;" parent="1" vertex="1">
          <mxGeometry x="-1261" y="642.07" width="80" height="80" as="geometry" />
        </mxCell>
        <mxCell id="IQOuE0TxBNfk_iXKN2kF-62" style="edgeStyle=orthogonalEdgeStyle;curved=1;comic=0;orthogonalLoop=1;jettySize=auto;html=1;entryX=0.5;entryY=0;entryDx=0;entryDy=0;shadow=0;startArrow=classic;startFill=1;endArrow=none;endFill=0;dashed=1;" parent="1" source="IQOuE0TxBNfk_iXKN2kF-37" target="IQOuE0TxBNfk_iXKN2kF-36" edge="1">
          <mxGeometry relative="1" as="geometry" />
        </mxCell>
        <mxCell id="IQOuE0TxBNfk_iXKN2kF-136" value="rdfs:subClassOf" style="text;html=1;align=center;verticalAlign=middle;resizable=0;points=[];labelBackgroundColor=#ffffff;fontColor=#000000;" parent="IQOuE0TxBNfk_iXKN2kF-62" vertex="1" connectable="0">
          <mxGeometry x="0.5818" y="10" relative="1" as="geometry">
            <mxPoint x="5" y="-3.95" as="offset" />
          </mxGeometry>
        </mxCell>
        <mxCell id="IQOuE0TxBNfk_iXKN2kF-63" style="edgeStyle=orthogonalEdgeStyle;curved=1;comic=0;orthogonalLoop=1;jettySize=auto;html=1;entryX=0.5;entryY=0;entryDx=0;entryDy=0;shadow=0;startArrow=classic;startFill=1;endArrow=none;endFill=0;dashed=1;" parent="1" source="IQOuE0TxBNfk_iXKN2kF-37" target="IQOuE0TxBNfk_iXKN2kF-35" edge="1">
          <mxGeometry relative="1" as="geometry" />
        </mxCell>
        <mxCell id="IQOuE0TxBNfk_iXKN2kF-137" value="rdfs:subClassOf" style="text;html=1;align=center;verticalAlign=middle;resizable=0;points=[];labelBackgroundColor=#ffffff;fontColor=#000000;" parent="IQOuE0TxBNfk_iXKN2kF-63" vertex="1" connectable="0">
          <mxGeometry x="0.5667" y="-9" relative="1" as="geometry">
            <mxPoint x="-8.95" y="-4.049999999999999" as="offset" />
          </mxGeometry>
        </mxCell>
        <mxCell id="IQOuE0TxBNfk_iXKN2kF-37" value="&lt;span style=&quot;white-space: normal&quot;&gt;sbeo:Wheel&lt;br&gt;Chair&lt;/span&gt;" style="ellipse;whiteSpace=wrap;html=1;aspect=fixed;fillColor=#dae8fc;strokeColor=#6c8ebf;shadow=0;" parent="1" vertex="1">
          <mxGeometry x="-1201" y="520" width="80" height="80" as="geometry" />
        </mxCell>
        <mxCell id="IQOuE0TxBNfk_iXKN2kF-38" value="&lt;span style=&quot;white-space: normal&quot;&gt;sbeo:Low&lt;br&gt;Stamina&lt;/span&gt;" style="ellipse;whiteSpace=wrap;html=1;aspect=fixed;fillColor=#dae8fc;strokeColor=#6c8ebf;shadow=0;" parent="1" vertex="1">
          <mxGeometry x="-1111" y="520" width="80" height="80" as="geometry" />
        </mxCell>
        <mxCell id="IQOuE0TxBNfk_iXKN2kF-64" style="edgeStyle=orthogonalEdgeStyle;curved=1;comic=0;orthogonalLoop=1;jettySize=auto;html=1;shadow=0;startArrow=classic;startFill=1;endArrow=none;endFill=0;dashed=1;" parent="1" source="IQOuE0TxBNfk_iXKN2kF-39" target="IQOuE0TxBNfk_iXKN2kF-33" edge="1">
          <mxGeometry relative="1" as="geometry" />
        </mxCell>
        <mxCell id="IQOuE0TxBNfk_iXKN2kF-138" value="rdfs:subClassOf" style="text;html=1;align=center;verticalAlign=middle;resizable=0;points=[];labelBackgroundColor=#ffffff;fontColor=#000000;" parent="IQOuE0TxBNfk_iXKN2kF-64" vertex="1" connectable="0">
          <mxGeometry x="-0.4926" y="-10" relative="1" as="geometry">
            <mxPoint x="9" y="15" as="offset" />
          </mxGeometry>
        </mxCell>
        <mxCell id="IQOuE0TxBNfk_iXKN2kF-65" style="edgeStyle=orthogonalEdgeStyle;curved=1;comic=0;orthogonalLoop=1;jettySize=auto;html=1;entryX=0.5;entryY=0;entryDx=0;entryDy=0;shadow=0;startArrow=classic;startFill=1;endArrow=none;endFill=0;dashed=1;" parent="1" source="IQOuE0TxBNfk_iXKN2kF-39" target="IQOuE0TxBNfk_iXKN2kF-34" edge="1">
          <mxGeometry relative="1" as="geometry" />
        </mxCell>
        <mxCell id="IQOuE0TxBNfk_iXKN2kF-139" value="rdfs:subClassOf" style="text;html=1;align=center;verticalAlign=middle;resizable=0;points=[];labelBackgroundColor=#ffffff;fontColor=#000000;" parent="IQOuE0TxBNfk_iXKN2kF-65" vertex="1" connectable="0">
          <mxGeometry x="0.39" y="-3" relative="1" as="geometry">
            <mxPoint x="3" y="26" as="offset" />
          </mxGeometry>
        </mxCell>
        <mxCell id="IQOuE0TxBNfk_iXKN2kF-39" value="&lt;span style=&quot;white-space: normal&quot;&gt;sbeo:Sensory&lt;br&gt;Impairment&lt;/span&gt;" style="ellipse;whiteSpace=wrap;html=1;aspect=fixed;fillColor=#dae8fc;strokeColor=#6c8ebf;shadow=0;" parent="1" vertex="1">
          <mxGeometry x="-951" y="520" width="80" height="80" as="geometry" />
        </mxCell>
        <mxCell id="IQOuE0TxBNfk_iXKN2kF-60" style="edgeStyle=orthogonalEdgeStyle;curved=1;comic=0;orthogonalLoop=1;jettySize=auto;html=1;entryX=1;entryY=0.5;entryDx=0;entryDy=0;shadow=0;startArrow=classic;startFill=1;endArrow=none;endFill=0;dashed=1;" parent="1" source="IQOuE0TxBNfk_iXKN2kF-40" target="IQOuE0TxBNfk_iXKN2kF-38" edge="1">
          <mxGeometry relative="1" as="geometry" />
        </mxCell>
        <mxCell id="IQOuE0TxBNfk_iXKN2kF-140" value="rdfs:subClassOf" style="text;html=1;align=center;verticalAlign=middle;resizable=0;points=[];labelBackgroundColor=#ffffff;fontColor=#000000;" parent="IQOuE0TxBNfk_iXKN2kF-60" vertex="1" connectable="0">
          <mxGeometry x="0.3121" y="-1" relative="1" as="geometry">
            <mxPoint x="-9.000000000000002" y="-19" as="offset" />
          </mxGeometry>
        </mxCell>
        <mxCell id="IQOuE0TxBNfk_iXKN2kF-61" style="edgeStyle=orthogonalEdgeStyle;curved=1;comic=0;orthogonalLoop=1;jettySize=auto;html=1;entryX=0.5;entryY=0;entryDx=0;entryDy=0;shadow=0;startArrow=classic;startFill=1;endArrow=none;endFill=0;dashed=1;" parent="1" source="IQOuE0TxBNfk_iXKN2kF-40" target="IQOuE0TxBNfk_iXKN2kF-37" edge="1">
          <mxGeometry relative="1" as="geometry" />
        </mxCell>
        <mxCell id="IQOuE0TxBNfk_iXKN2kF-142" value="rdfs:subClassOf" style="text;html=1;align=center;verticalAlign=middle;resizable=0;points=[];labelBackgroundColor=#ffffff;fontColor=#000000;" parent="IQOuE0TxBNfk_iXKN2kF-61" vertex="1" connectable="0">
          <mxGeometry x="0.2487" y="-1" relative="1" as="geometry">
            <mxPoint as="offset" />
          </mxGeometry>
        </mxCell>
        <mxCell id="IQOuE0TxBNfk_iXKN2kF-40" value="&lt;span style=&quot;white-space: normal&quot;&gt;sbeo:Physical&lt;br&gt;Impairment&lt;br&gt;&lt;/span&gt;" style="ellipse;whiteSpace=wrap;html=1;aspect=fixed;fillColor=#dae8fc;strokeColor=#6c8ebf;shadow=0;" parent="1" vertex="1">
          <mxGeometry x="-1111" y="406" width="80" height="80" as="geometry" />
        </mxCell>
        <mxCell id="IQOuE0TxBNfk_iXKN2kF-41" value="sbeo:Visitor" style="ellipse;whiteSpace=wrap;html=1;aspect=fixed;fillColor=#dae8fc;strokeColor=#6c8ebf;shadow=0;" parent="1" vertex="1">
          <mxGeometry x="-851" y="588.93" width="80" height="80" as="geometry" />
        </mxCell>
        <mxCell id="IQOuE0TxBNfk_iXKN2kF-42" value="&lt;span style=&quot;white-space: normal&quot;&gt;sbeo:Respnsible&lt;/span&gt;" style="ellipse;whiteSpace=wrap;html=1;aspect=fixed;fillColor=#dae8fc;strokeColor=#6c8ebf;shadow=0;" parent="1" vertex="1">
          <mxGeometry x="-851" y="501" width="80" height="80" as="geometry" />
        </mxCell>
        <mxCell id="IQOuE0TxBNfk_iXKN2kF-43" value="&lt;span style=&quot;white-space: normal&quot;&gt;sbeo:Normal&lt;/span&gt;" style="ellipse;whiteSpace=wrap;html=1;aspect=fixed;fillColor=#dae8fc;strokeColor=#6c8ebf;shadow=0;" parent="1" vertex="1">
          <mxGeometry x="-851" y="413" width="80" height="80" as="geometry" />
        </mxCell>
        <mxCell id="IQOuE0TxBNfk_iXKN2kF-44" value="&lt;span style=&quot;white-space: normal&quot;&gt;sbeo:Injured&lt;/span&gt;" style="ellipse;whiteSpace=wrap;html=1;aspect=fixed;fillColor=#dae8fc;strokeColor=#6c8ebf;shadow=0;" parent="1" vertex="1">
          <mxGeometry x="-851" y="769" width="80" height="80" as="geometry" />
        </mxCell>
        <mxCell id="IQOuE0TxBNfk_iXKN2kF-58" style="edgeStyle=orthogonalEdgeStyle;curved=1;comic=0;orthogonalLoop=1;jettySize=auto;html=1;entryX=1;entryY=0.5;entryDx=0;entryDy=0;shadow=0;startArrow=classic;startFill=1;endArrow=none;endFill=0;dashed=1;" parent="1" source="IQOuE0TxBNfk_iXKN2kF-45" target="IQOuE0TxBNfk_iXKN2kF-40" edge="1">
          <mxGeometry relative="1" as="geometry">
            <Array as="points">
              <mxPoint x="-981" y="446" />
              <mxPoint x="-981" y="446" />
            </Array>
          </mxGeometry>
        </mxCell>
        <mxCell id="IQOuE0TxBNfk_iXKN2kF-141" value="rdfs:subClassOf" style="text;html=1;align=center;verticalAlign=middle;resizable=0;points=[];labelBackgroundColor=#ffffff;fontColor=#000000;" parent="IQOuE0TxBNfk_iXKN2kF-58" vertex="1" connectable="0">
          <mxGeometry x="-0.2167" y="7" relative="1" as="geometry">
            <mxPoint x="-9" y="-27" as="offset" />
          </mxGeometry>
        </mxCell>
        <mxCell id="IQOuE0TxBNfk_iXKN2kF-59" style="edgeStyle=orthogonalEdgeStyle;curved=1;comic=0;orthogonalLoop=1;jettySize=auto;html=1;exitX=0.5;exitY=1;exitDx=0;exitDy=0;shadow=0;startArrow=classic;startFill=1;endArrow=none;endFill=0;dashed=1;" parent="1" source="IQOuE0TxBNfk_iXKN2kF-45" target="IQOuE0TxBNfk_iXKN2kF-39" edge="1">
          <mxGeometry relative="1" as="geometry" />
        </mxCell>
        <mxCell id="IQOuE0TxBNfk_iXKN2kF-143" value="rdfs:subClassOf" style="text;html=1;align=center;verticalAlign=middle;resizable=0;points=[];labelBackgroundColor=#ffffff;fontColor=#000000;" parent="IQOuE0TxBNfk_iXKN2kF-59" vertex="1" connectable="0">
          <mxGeometry x="0.3107" y="-1" relative="1" as="geometry">
            <mxPoint x="1" y="5" as="offset" />
          </mxGeometry>
        </mxCell>
        <mxCell id="IQOuE0TxBNfk_iXKN2kF-45" value="&lt;span style=&quot;white-space: normal&quot;&gt;sbeo:Impaired&lt;/span&gt;" style="ellipse;whiteSpace=wrap;html=1;aspect=fixed;fillColor=#dae8fc;strokeColor=#6c8ebf;shadow=0;" parent="1" vertex="1">
          <mxGeometry x="-951" y="406" width="80" height="80" as="geometry" />
        </mxCell>
        <mxCell id="IQOuE0TxBNfk_iXKN2kF-46" value="&lt;span style=&quot;white-space: normal&quot;&gt;sbeo:Family&lt;/span&gt;" style="ellipse;whiteSpace=wrap;html=1;aspect=fixed;fillColor=#dae8fc;strokeColor=#6c8ebf;shadow=0;" parent="1" vertex="1">
          <mxGeometry x="-851" y="856" width="80" height="80" as="geometry" />
        </mxCell>
        <mxCell id="IQOuE0TxBNfk_iXKN2kF-69" value="&lt;span style=&quot;white-space: normal&quot;&gt;sbeo:UnAvailable&lt;/span&gt;" style="ellipse;whiteSpace=wrap;html=1;aspect=fixed;fillColor=#dae8fc;strokeColor=#6c8ebf;shadow=0;" parent="1" vertex="1">
          <mxGeometry x="1141" y="371" width="80" height="80" as="geometry" />
        </mxCell>
        <mxCell id="IQOuE0TxBNfk_iXKN2kF-71" value="&lt;span style=&quot;white-space: normal&quot;&gt;sbeo:Emergency&lt;br&gt;Exit&lt;/span&gt;" style="ellipse;whiteSpace=wrap;html=1;aspect=fixed;fillColor=#dae8fc;strokeColor=#6c8ebf;shadow=0;" parent="1" vertex="1">
          <mxGeometry x="1141" y="471" width="80" height="80" as="geometry" />
        </mxCell>
        <mxCell id="IQOuE0TxBNfk_iXKN2kF-82" style="edgeStyle=orthogonalEdgeStyle;curved=1;comic=0;orthogonalLoop=1;jettySize=auto;html=1;entryX=0;entryY=0.5;entryDx=0;entryDy=0;shadow=0;startArrow=classic;startFill=1;endArrow=none;endFill=0;dashed=1;" parent="1" source="IQOuE0TxBNfk_iXKN2kF-72" target="IQOuE0TxBNfk_iXKN2kF-71" edge="1">
          <mxGeometry relative="1" as="geometry" />
        </mxCell>
        <mxCell id="IQOuE0TxBNfk_iXKN2kF-105" value="rdfs:subClassOf" style="text;html=1;align=center;verticalAlign=middle;resizable=0;points=[];labelBackgroundColor=#ffffff;fontColor=#000000;" parent="IQOuE0TxBNfk_iXKN2kF-82" vertex="1" connectable="0">
          <mxGeometry x="-0.1088" y="5" relative="1" as="geometry">
            <mxPoint y="-5" as="offset" />
          </mxGeometry>
        </mxCell>
        <mxCell id="IQOuE0TxBNfk_iXKN2kF-72" value="&lt;span style=&quot;white-space: normal&quot;&gt;sbeo:Exit&lt;/span&gt;" style="ellipse;whiteSpace=wrap;html=1;aspect=fixed;fillColor=#dae8fc;strokeColor=#6c8ebf;shadow=0;" parent="1" vertex="1">
          <mxGeometry x="951" y="471" width="80" height="80" as="geometry" />
        </mxCell>
        <mxCell id="IQOuE0TxBNfk_iXKN2kF-322" style="edgeStyle=orthogonalEdgeStyle;curved=1;comic=0;orthogonalLoop=1;jettySize=auto;html=1;exitX=0.5;exitY=0;exitDx=0;exitDy=0;entryX=0.5;entryY=1;entryDx=0;entryDy=0;shadow=0;startArrow=none;startFill=0;endArrow=classic;endFill=1;fontColor=#000000;dashed=1;" parent="1" source="IQOuE0TxBNfk_iXKN2kF-73" target="EgX6zlfz2IxhlC0AGUEL-11" edge="1">
          <mxGeometry relative="1" as="geometry" />
        </mxCell>
        <mxCell id="IQOuE0TxBNfk_iXKN2kF-323" value="rdfs:subClassOf" style="text;html=1;align=center;verticalAlign=middle;resizable=0;points=[];labelBackgroundColor=#ffffff;" parent="IQOuE0TxBNfk_iXKN2kF-322" vertex="1" connectable="0">
          <mxGeometry x="0.1682" relative="1" as="geometry">
            <mxPoint y="7" as="offset" />
          </mxGeometry>
        </mxCell>
        <mxCell id="IQOuE0TxBNfk_iXKN2kF-73" value="&lt;span style=&quot;white-space: normal&quot;&gt;sbeo:Entrance&lt;/span&gt;" style="ellipse;whiteSpace=wrap;html=1;aspect=fixed;fillColor=#dae8fc;strokeColor=#6c8ebf;shadow=0;" parent="1" vertex="1">
          <mxGeometry x="951" y="366" width="80" height="80" as="geometry" />
        </mxCell>
        <mxCell id="IQOuE0TxBNfk_iXKN2kF-74" value="&lt;span style=&quot;white-space: normal&quot;&gt;sbeo:Waiting&lt;br&gt;Zone&lt;/span&gt;" style="ellipse;whiteSpace=wrap;html=1;aspect=fixed;fillColor=#dae8fc;strokeColor=#6c8ebf;shadow=0;" parent="1" vertex="1">
          <mxGeometry x="1231" y="471" width="80" height="80" as="geometry" />
        </mxCell>
        <mxCell id="IQOuE0TxBNfk_iXKN2kF-75" value="&lt;span style=&quot;white-space: normal&quot;&gt;sbeo:Assembly&lt;br&gt;Point&lt;br&gt;&lt;/span&gt;" style="ellipse;whiteSpace=wrap;html=1;aspect=fixed;fillColor=#dae8fc;strokeColor=#6c8ebf;shadow=0;" parent="1" vertex="1">
          <mxGeometry x="1330" y="471" width="80" height="80" as="geometry" />
        </mxCell>
        <mxCell id="IQOuE0TxBNfk_iXKN2kF-84" style="edgeStyle=orthogonalEdgeStyle;curved=1;comic=0;orthogonalLoop=1;jettySize=auto;html=1;entryX=0.5;entryY=0;entryDx=0;entryDy=0;shadow=0;startArrow=classic;startFill=1;endArrow=none;endFill=0;dashed=1;" parent="1" source="IQOuE0TxBNfk_iXKN2kF-76" target="IQOuE0TxBNfk_iXKN2kF-75" edge="1">
          <mxGeometry relative="1" as="geometry" />
        </mxCell>
        <mxCell id="IQOuE0TxBNfk_iXKN2kF-144" value="rdfs:subClassOf" style="text;html=1;align=center;verticalAlign=middle;resizable=0;points=[];labelBackgroundColor=#ffffff;fontColor=#000000;" parent="IQOuE0TxBNfk_iXKN2kF-84" vertex="1" connectable="0">
          <mxGeometry x="-0.2818" y="2" relative="1" as="geometry">
            <mxPoint x="-1.9999999999999964" y="88" as="offset" />
          </mxGeometry>
        </mxCell>
        <mxCell id="IQOuE0TxBNfk_iXKN2kF-85" style="edgeStyle=orthogonalEdgeStyle;curved=1;comic=0;orthogonalLoop=1;jettySize=auto;html=1;shadow=0;startArrow=classic;startFill=1;endArrow=none;endFill=0;dashed=1;" parent="1" source="IQOuE0TxBNfk_iXKN2kF-76" target="IQOuE0TxBNfk_iXKN2kF-74" edge="1">
          <mxGeometry relative="1" as="geometry" />
        </mxCell>
        <mxCell id="IQOuE0TxBNfk_iXKN2kF-145" value="rdfs:subClassOf" style="text;html=1;align=center;verticalAlign=middle;resizable=0;points=[];labelBackgroundColor=#ffffff;fontColor=#000000;" parent="IQOuE0TxBNfk_iXKN2kF-85" vertex="1" connectable="0">
          <mxGeometry x="0.28" y="-3" relative="1" as="geometry">
            <mxPoint x="3" y="-2" as="offset" />
          </mxGeometry>
        </mxCell>
        <mxCell id="IQOuE0TxBNfk_iXKN2kF-169" style="edgeStyle=orthogonalEdgeStyle;curved=1;comic=0;orthogonalLoop=1;jettySize=auto;html=1;shadow=0;startArrow=none;startFill=0;endArrow=classic;endFill=1;fontColor=#000000;exitX=1;exitY=0.5;exitDx=0;exitDy=0;entryX=1;entryY=0.5;entryDx=0;entryDy=0;" parent="1" source="IQOuE0TxBNfk_iXKN2kF-77" target="IQOuE0TxBNfk_iXKN2kF-168" edge="1">
          <mxGeometry relative="1" as="geometry">
            <Array as="points">
              <mxPoint x="1320" y="263" />
              <mxPoint x="1320" y="156" />
            </Array>
          </mxGeometry>
        </mxCell>
        <mxCell id="IQOuE0TxBNfk_iXKN2kF-170" value="&lt;span style=&quot;background-color: rgb(102 , 255 , 102)&quot;&gt;sbeo:accomodation&lt;br&gt;Capacity&lt;/span&gt;" style="text;html=1;align=center;verticalAlign=middle;resizable=0;points=[];labelBackgroundColor=#ffffff;" parent="IQOuE0TxBNfk_iXKN2kF-169" vertex="1" connectable="0">
          <mxGeometry x="-0.341" y="-3" relative="1" as="geometry">
            <mxPoint x="1.7800000000000011" y="-1.5900000000000034" as="offset" />
          </mxGeometry>
        </mxCell>
        <mxCell id="IQOuE0TxBNfk_iXKN2kF-299" style="edgeStyle=orthogonalEdgeStyle;curved=1;comic=0;orthogonalLoop=1;jettySize=auto;html=1;exitX=1;exitY=0.5;exitDx=0;exitDy=0;entryX=1;entryY=0.5;entryDx=0;entryDy=0;shadow=0;startArrow=none;startFill=0;endArrow=classic;endFill=1;fontColor=#000000;" parent="1" source="IQOuE0TxBNfk_iXKN2kF-77" target="IQOuE0TxBNfk_iXKN2kF-168" edge="1">
          <mxGeometry relative="1" as="geometry">
            <Array as="points">
              <mxPoint x="1260" y="263" />
              <mxPoint x="1260" y="156" />
            </Array>
            <mxPoint x="1443.5" y="171.00000000000006" as="targetPoint" />
          </mxGeometry>
        </mxCell>
        <mxCell id="IQOuE0TxBNfk_iXKN2kF-300" value="&lt;span style=&quot;background-color: rgb(102 , 255 , 102)&quot;&gt;sbeo:current&lt;/span&gt;&lt;br&gt;&lt;span style=&quot;background-color: rgb(102 , 255 , 102)&quot;&gt;Occupancy&lt;/span&gt;" style="text;html=1;align=center;verticalAlign=middle;resizable=0;points=[];labelBackgroundColor=#ffffff;" parent="IQOuE0TxBNfk_iXKN2kF-299" vertex="1" connectable="0">
          <mxGeometry x="0.3235" y="-1" relative="1" as="geometry">
            <mxPoint x="13.600000000000001" y="44" as="offset" />
          </mxGeometry>
        </mxCell>
        <mxCell id="IQOuE0TxBNfk_iXKN2kF-76" value="sbeo:SafeZone" style="ellipse;whiteSpace=wrap;html=1;aspect=fixed;fillColor=#dae8fc;strokeColor=#6c8ebf;shadow=0;" parent="1" vertex="1">
          <mxGeometry x="1230" y="299" width="80" height="80" as="geometry" />
        </mxCell>
        <mxCell id="IQOuE0TxBNfk_iXKN2kF-83" style="edgeStyle=orthogonalEdgeStyle;curved=1;comic=0;orthogonalLoop=1;jettySize=auto;html=1;entryX=0;entryY=0.5;entryDx=0;entryDy=0;shadow=0;startArrow=classic;startFill=1;endArrow=none;endFill=0;dashed=1;exitX=0.5;exitY=1;exitDx=0;exitDy=0;" parent="1" source="IQOuE0TxBNfk_iXKN2kF-77" target="IQOuE0TxBNfk_iXKN2kF-76" edge="1">
          <mxGeometry relative="1" as="geometry" />
        </mxCell>
        <mxCell id="IQOuE0TxBNfk_iXKN2kF-110" value="rdfs:subClassOf" style="text;html=1;align=center;verticalAlign=middle;resizable=0;points=[];labelBackgroundColor=#ffffff;fontColor=#000000;" parent="IQOuE0TxBNfk_iXKN2kF-83" vertex="1" connectable="0">
          <mxGeometry x="0.2266" y="4" relative="1" as="geometry">
            <mxPoint x="-17.22" y="-6.02" as="offset" />
          </mxGeometry>
        </mxCell>
        <mxCell id="IQOuE0TxBNfk_iXKN2kF-77" value="sbeo:Available" style="ellipse;whiteSpace=wrap;html=1;aspect=fixed;fillColor=#dae8fc;strokeColor=#6c8ebf;shadow=0;" parent="1" vertex="1">
          <mxGeometry x="1141" y="223.5" width="80" height="80" as="geometry" />
        </mxCell>
        <mxCell id="IQOuE0TxBNfk_iXKN2kF-168" value="xsd:integer" style="rounded=0;whiteSpace=wrap;html=1;fillColor=#ffff88;strokeColor=#36393d;" parent="1" vertex="1">
          <mxGeometry x="1063" y="146" width="78" height="20" as="geometry" />
        </mxCell>
        <mxCell id="IQOuE0TxBNfk_iXKN2kF-208" value="xsd:long" style="rounded=0;whiteSpace=wrap;html=1;fillColor=#ffff88;strokeColor=#36393d;" parent="1" vertex="1">
          <mxGeometry x="200" y="366" width="78" height="20" as="geometry" />
        </mxCell>
        <mxCell id="IQOuE0TxBNfk_iXKN2kF-215" value="xsd:long" style="rounded=0;whiteSpace=wrap;html=1;fillColor=#ffff88;strokeColor=#36393d;" parent="1" vertex="1">
          <mxGeometry x="-250" y="221" width="78" height="20" as="geometry" />
        </mxCell>
        <mxCell id="IQOuE0TxBNfk_iXKN2kF-247" value="xsd:integer" style="rounded=0;whiteSpace=wrap;html=1;fillColor=#ffff88;strokeColor=#36393d;" parent="1" vertex="1">
          <mxGeometry x="-707.97" y="279" width="78" height="20" as="geometry" />
        </mxCell>
        <mxCell id="IQOuE0TxBNfk_iXKN2kF-302" style="edgeStyle=orthogonalEdgeStyle;curved=1;comic=0;orthogonalLoop=1;jettySize=auto;html=1;exitX=0.5;exitY=0;exitDx=0;exitDy=0;entryX=1;entryY=0;entryDx=0;entryDy=0;shadow=0;startArrow=none;startFill=0;endArrow=classic;endFill=1;fontColor=#000000;" parent="1" source="EgX6zlfz2IxhlC0AGUEL-8" target="EgX6zlfz2IxhlC0AGUEL-8" edge="1">
          <mxGeometry relative="1" as="geometry">
            <Array as="points">
              <mxPoint x="-365" y="355" />
              <mxPoint x="-337" y="355" />
            </Array>
          </mxGeometry>
        </mxCell>
        <mxCell id="IQOuE0TxBNfk_iXKN2kF-303" value="&lt;span style=&quot;background-color: rgb(102 , 255 , 255)&quot;&gt;sbeo:accompanying&lt;br&gt;(transitive, symmetric)&lt;br&gt;&lt;/span&gt;" style="text;html=1;align=center;verticalAlign=middle;resizable=0;points=[];labelBackgroundColor=#ffffff;rotation=0;" parent="IQOuE0TxBNfk_iXKN2kF-302" vertex="1" connectable="0">
          <mxGeometry x="0.3048" y="-2" relative="1" as="geometry">
            <mxPoint x="-17.3" y="-10.7" as="offset" />
          </mxGeometry>
        </mxCell>
        <mxCell id="IQOuE0TxBNfk_iXKN2kF-307" style="edgeStyle=orthogonalEdgeStyle;curved=1;comic=0;orthogonalLoop=1;jettySize=auto;html=1;entryX=1;entryY=0;entryDx=0;entryDy=0;shadow=0;startArrow=none;startFill=0;endArrow=classic;endFill=1;fontColor=#000000;" parent="1" source="EgX6zlfz2IxhlC0AGUEL-8" target="EgX6zlfz2IxhlC0AGUEL-8" edge="1">
          <mxGeometry relative="1" as="geometry">
            <Array as="points">
              <mxPoint x="-365" y="445" />
              <mxPoint x="-242" y="445" />
              <mxPoint x="-242" y="487" />
            </Array>
          </mxGeometry>
        </mxCell>
        <mxCell id="IQOuE0TxBNfk_iXKN2kF-308" value="sbeo:acquaintanceOf&#xa;(symmetric)" style="text;align=center;verticalAlign=middle;resizable=0;points=[];labelBackgroundColor=#66FFFF;labelBorderColor=none;spacingTop=0;labelPosition=center;verticalLabelPosition=middle;horizontal=1;rotation=0;" parent="IQOuE0TxBNfk_iXKN2kF-307" vertex="1" connectable="0">
          <mxGeometry x="-0.2913" relative="1" as="geometry">
            <mxPoint x="20.17" y="16" as="offset" />
          </mxGeometry>
        </mxCell>
        <mxCell id="IQOuE0TxBNfk_iXKN2kF-310" style="edgeStyle=orthogonalEdgeStyle;curved=1;comic=0;orthogonalLoop=1;jettySize=auto;html=1;exitX=0;exitY=1;exitDx=0;exitDy=0;entryX=0;entryY=0.5;entryDx=0;entryDy=0;shadow=0;startArrow=none;startFill=0;endArrow=classic;endFill=1;fontColor=#000000;" parent="1" source="EgX6zlfz2IxhlC0AGUEL-14" target="EgX6zlfz2IxhlC0AGUEL-14" edge="1">
          <mxGeometry relative="1" as="geometry">
            <Array as="points">
              <mxPoint x="492" y="306" />
              <mxPoint x="400" y="306" />
              <mxPoint x="400" y="264" />
            </Array>
          </mxGeometry>
        </mxCell>
        <mxCell id="IQOuE0TxBNfk_iXKN2kF-311" value="&lt;span style=&quot;background-color: rgb(102 , 255 , 255)&quot;&gt;sbeo:adjacentTo&lt;br&gt;(symmetric)&lt;/span&gt;" style="text;html=1;align=center;verticalAlign=middle;resizable=0;points=[];labelBackgroundColor=#ffffff;" parent="IQOuE0TxBNfk_iXKN2kF-310" vertex="1" connectable="0">
          <mxGeometry x="-0.2797" y="-1" relative="1" as="geometry">
            <mxPoint x="-3.5499999999999954" y="-13.999999999999998" as="offset" />
          </mxGeometry>
        </mxCell>
        <mxCell id="IQOuE0TxBNfk_iXKN2kF-315" style="edgeStyle=orthogonalEdgeStyle;curved=1;comic=0;orthogonalLoop=1;jettySize=auto;html=1;exitX=1;exitY=0;exitDx=0;exitDy=0;entryX=1;entryY=0.5;entryDx=0;entryDy=0;shadow=0;startArrow=none;startFill=0;endArrow=classic;endFill=1;fontColor=#000000;" parent="1" source="EgX6zlfz2IxhlC0AGUEL-8" target="EgX6zlfz2IxhlC0AGUEL-8" edge="1">
          <mxGeometry relative="1" as="geometry">
            <Array as="points">
              <mxPoint x="-222" y="487" />
              <mxPoint x="-222" y="515" />
            </Array>
          </mxGeometry>
        </mxCell>
        <mxCell id="IQOuE0TxBNfk_iXKN2kF-316" value="&lt;span style=&quot;background-color: rgb(102 , 255 , 255)&quot;&gt;sbeo:dependentOn&lt;/span&gt;&lt;br&gt;&lt;span style=&quot;background-color: rgb(102 , 255 , 255)&quot;&gt;(transitive)&lt;/span&gt;" style="text;html=1;align=center;verticalAlign=middle;resizable=0;points=[];labelBackgroundColor=#ffffff;" parent="IQOuE0TxBNfk_iXKN2kF-315" vertex="1" connectable="0">
          <mxGeometry x="0.1236" y="-29" relative="1" as="geometry">
            <mxPoint y="-1" as="offset" />
          </mxGeometry>
        </mxCell>
        <mxCell id="IQOuE0TxBNfk_iXKN2kF-320" style="edgeStyle=orthogonalEdgeStyle;curved=1;comic=0;orthogonalLoop=1;jettySize=auto;html=1;exitX=0.5;exitY=0;exitDx=0;exitDy=0;shadow=0;startArrow=none;startFill=0;endArrow=classic;endFill=1;fontColor=#000000;" parent="1" source="EgX6zlfz2IxhlC0AGUEL-8" edge="1">
          <mxGeometry relative="1" as="geometry">
            <mxPoint x="-393" y="487" as="targetPoint" />
            <Array as="points">
              <mxPoint x="-365" y="415" />
              <mxPoint x="-393" y="415" />
            </Array>
          </mxGeometry>
        </mxCell>
        <mxCell id="IQOuE0TxBNfk_iXKN2kF-321" value="&lt;span style=&quot;background-color: rgb(102 , 255 , 255)&quot;&gt;sbeo:responsibleTo&lt;br&gt;(transitive)&lt;br&gt;&lt;/span&gt;" style="text;html=1;align=center;verticalAlign=middle;resizable=0;points=[];labelBackgroundColor=#ffffff;" parent="IQOuE0TxBNfk_iXKN2kF-320" vertex="1" connectable="0">
          <mxGeometry x="0.6789" relative="1" as="geometry">
            <mxPoint x="0.9900000000000002" y="-26.34" as="offset" />
          </mxGeometry>
        </mxCell>
        <mxCell id="IQOuE0TxBNfk_iXKN2kF-332" value="sbeo:Exit&lt;br&gt;sbeo:Route&lt;br&gt;sbeo:Entrance&lt;br&gt;seas:ZoneConnection&lt;br&gt;seas:Zone" style="ellipse;whiteSpace=wrap;html=1;aspect=fixed;fillColor=#FF99FF;strokeColor=#6c8ebf;rounded=0;labelBackgroundColor=none;align=center;" parent="1" vertex="1">
          <mxGeometry x="-719.97" y="194" width="80" height="80" as="geometry" />
        </mxCell>
        <mxCell id="IQOuE0TxBNfk_iXKN2kF-335" style="edgeStyle=orthogonalEdgeStyle;curved=1;comic=0;orthogonalLoop=1;jettySize=auto;html=1;exitX=0;exitY=0;exitDx=0;exitDy=0;shadow=0;startArrow=none;startFill=0;endArrow=classic;endFill=1;fontColor=#000000;entryX=0;entryY=0.5;entryDx=0;entryDy=0;" parent="1" source="EgX6zlfz2IxhlC0AGUEL-10" target="IQOuE0TxBNfk_iXKN2kF-332" edge="1">
          <mxGeometry relative="1" as="geometry">
            <mxPoint x="-694.1142712474622" y="442.35572875253786" as="sourcePoint" />
            <mxPoint x="-819.97" y="349" as="targetPoint" />
            <Array as="points">
              <mxPoint x="-839.97" y="361" />
              <mxPoint x="-839.97" y="234" />
            </Array>
          </mxGeometry>
        </mxCell>
        <mxCell id="IQOuE0TxBNfk_iXKN2kF-336" value="&lt;span style=&quot;background-color: rgb(102 , 255 , 255)&quot;&gt;sbeo:startsFrom&lt;/span&gt;" style="text;html=1;align=center;verticalAlign=middle;resizable=0;points=[];labelBackgroundColor=#ffffff;" parent="IQOuE0TxBNfk_iXKN2kF-335" vertex="1" connectable="0">
          <mxGeometry x="-0.028" y="-8" relative="1" as="geometry">
            <mxPoint x="1.970000000000006" y="-65.97" as="offset" />
          </mxGeometry>
        </mxCell>
        <mxCell id="IQOuE0TxBNfk_iXKN2kF-340" style="edgeStyle=orthogonalEdgeStyle;curved=1;comic=0;orthogonalLoop=1;jettySize=auto;html=1;exitX=0.5;exitY=0;exitDx=0;exitDy=0;entryX=1;entryY=0;entryDx=0;entryDy=0;shadow=0;startArrow=none;startFill=0;endArrow=classic;endFill=1;fontColor=#000000;" parent="1" source="IQOuE0TxBNfk_iXKN2kF-332" target="IQOuE0TxBNfk_iXKN2kF-332" edge="1">
          <mxGeometry relative="1" as="geometry">
            <Array as="points">
              <mxPoint x="-679.97" y="134" />
              <mxPoint x="-651.97" y="134" />
            </Array>
          </mxGeometry>
        </mxCell>
        <mxCell id="IQOuE0TxBNfk_iXKN2kF-341" value="seas:connectedTo&lt;br&gt;(symmetric)" style="text;html=1;align=center;verticalAlign=middle;resizable=0;points=[];labelBackgroundColor=#FF6666;" parent="IQOuE0TxBNfk_iXKN2kF-340" vertex="1" connectable="0">
          <mxGeometry x="0.339" relative="1" as="geometry">
            <mxPoint x="-17.3" y="0.8300000000000001" as="offset" />
          </mxGeometry>
        </mxCell>
        <mxCell id="IQOuE0TxBNfk_iXKN2kF-346" style="edgeStyle=orthogonalEdgeStyle;curved=1;comic=0;orthogonalLoop=1;jettySize=auto;html=1;entryX=0.5;entryY=1;entryDx=0;entryDy=0;shadow=0;startArrow=none;startFill=0;endArrow=classic;endFill=1;fontColor=#000000;exitX=0.5;exitY=0;exitDx=0;exitDy=0;" parent="1" source="IQOuE0TxBNfk_iXKN2kF-344" target="EgX6zlfz2IxhlC0AGUEL-6" edge="1">
          <mxGeometry relative="1" as="geometry">
            <Array as="points">
              <mxPoint x="700" y="406" />
              <mxPoint x="670" y="406" />
            </Array>
          </mxGeometry>
        </mxCell>
        <mxCell id="IQOuE0TxBNfk_iXKN2kF-351" value="&lt;span style=&quot;background-color: rgb(102 , 255 , 255)&quot;&gt;sbeo:locatedIn&lt;/span&gt;" style="text;html=1;align=center;verticalAlign=middle;resizable=0;points=[];labelBackgroundColor=#ffffff;rotation=0;" parent="IQOuE0TxBNfk_iXKN2kF-346" vertex="1" connectable="0">
          <mxGeometry x="-0.3128" y="-8" relative="1" as="geometry">
            <mxPoint x="-0.7400000000000009" y="-61.99999999999999" as="offset" />
          </mxGeometry>
        </mxCell>
        <mxCell id="IQOuE0TxBNfk_iXKN2kF-349" style="edgeStyle=orthogonalEdgeStyle;curved=1;comic=0;orthogonalLoop=1;jettySize=auto;html=1;entryX=1;entryY=0.5;entryDx=0;entryDy=0;shadow=0;startArrow=none;startFill=0;endArrow=classic;endFill=1;fontColor=#000000;exitX=0;exitY=0.5;exitDx=0;exitDy=0;" parent="1" source="IQOuE0TxBNfk_iXKN2kF-344" target="EgX6zlfz2IxhlC0AGUEL-14" edge="1">
          <mxGeometry relative="1" as="geometry">
            <Array as="points">
              <mxPoint x="620" y="471" />
              <mxPoint x="620" y="263" />
            </Array>
          </mxGeometry>
        </mxCell>
        <mxCell id="IQOuE0TxBNfk_iXKN2kF-352" value="&lt;span style=&quot;background-color: rgb(102 , 255 , 255)&quot;&gt;sbeo:locatedIn&lt;/span&gt;" style="text;html=1;align=center;verticalAlign=middle;resizable=0;points=[];labelBackgroundColor=#ffffff;rotation=0;" parent="IQOuE0TxBNfk_iXKN2kF-349" vertex="1" connectable="0">
          <mxGeometry x="0.0607" y="2" relative="1" as="geometry">
            <mxPoint x="11.97" y="22.859999999999992" as="offset" />
          </mxGeometry>
        </mxCell>
        <mxCell id="IQOuE0TxBNfk_iXKN2kF-344" value="sbeo:Exit&lt;br&gt;sbeo:Entrance&lt;br&gt;seas:ZoneConnection&lt;br&gt;seas:Zone&lt;br&gt;sbeo:Person&lt;br&gt;sbeo:Incident" style="ellipse;whiteSpace=wrap;html=1;aspect=fixed;fillColor=#FF99FF;strokeColor=#6c8ebf;rounded=0;labelBackgroundColor=none;align=center;" parent="1" vertex="1">
          <mxGeometry x="660" y="431" width="80" height="80" as="geometry" />
        </mxCell>
        <mxCell id="IQOuE0TxBNfk_iXKN2kF-355" style="edgeStyle=orthogonalEdgeStyle;curved=1;comic=0;orthogonalLoop=1;jettySize=auto;html=1;entryX=1;entryY=0.5;entryDx=0;entryDy=0;shadow=0;startArrow=none;startFill=0;endArrow=classic;endFill=1;fontColor=#000000;" parent="1" source="IQOuE0TxBNfk_iXKN2kF-354" target="EgX6zlfz2IxhlC0AGUEL-6" edge="1">
          <mxGeometry relative="1" as="geometry" />
        </mxCell>
        <mxCell id="IQOuE0TxBNfk_iXKN2kF-358" value="sbeo:installedIn" style="text;html=1;align=center;verticalAlign=middle;resizable=0;points=[];labelBackgroundColor=#66FFFF;rotation=0;" parent="IQOuE0TxBNfk_iXKN2kF-355" vertex="1" connectable="0">
          <mxGeometry x="-0.3551" y="5" relative="1" as="geometry">
            <mxPoint x="-0.10999999999999943" y="-101.42" as="offset" />
          </mxGeometry>
        </mxCell>
        <mxCell id="IQOuE0TxBNfk_iXKN2kF-356" style="edgeStyle=orthogonalEdgeStyle;curved=1;comic=0;orthogonalLoop=1;jettySize=auto;html=1;entryX=1;entryY=0.5;entryDx=0;entryDy=0;shadow=0;startArrow=none;startFill=0;endArrow=classic;endFill=1;fontColor=#000000;" parent="1" source="IQOuE0TxBNfk_iXKN2kF-354" target="EgX6zlfz2IxhlC0AGUEL-14" edge="1">
          <mxGeometry relative="1" as="geometry">
            <Array as="points">
              <mxPoint x="820" y="536" />
              <mxPoint x="590" y="536" />
              <mxPoint x="590" y="264" />
            </Array>
          </mxGeometry>
        </mxCell>
        <mxCell id="IQOuE0TxBNfk_iXKN2kF-357" value="&lt;span style=&quot;background-color: rgb(102 , 255 , 255)&quot;&gt;sbeo:installedIn&lt;/span&gt;" style="text;html=1;align=center;verticalAlign=middle;resizable=0;points=[];labelBackgroundColor=#ffffff;" parent="IQOuE0TxBNfk_iXKN2kF-356" vertex="1" connectable="0">
          <mxGeometry x="-0.1676" y="1" relative="1" as="geometry">
            <mxPoint x="88.36" y="-4.03" as="offset" />
          </mxGeometry>
        </mxCell>
        <mxCell id="IQOuE0TxBNfk_iXKN2kF-354" value="sbeo:Device&lt;br&gt;seas:ZoneConnection&lt;br&gt;seas:Zone" style="ellipse;whiteSpace=wrap;html=1;aspect=fixed;fillColor=#FF99FF;strokeColor=#6c8ebf;rounded=0;labelBackgroundColor=none;align=center;" parent="1" vertex="1">
          <mxGeometry x="780.19" y="429.5" width="80" height="80" as="geometry" />
        </mxCell>
        <mxCell id="yLDOqc1vmUTKO-x5eXoO-3" value="rdfs:subClassOf" style="text;html=1;align=center;verticalAlign=middle;resizable=0;points=[];labelBackgroundColor=#ffffff;fontColor=#000000;" parent="1" vertex="1" connectable="0">
          <mxGeometry x="-719.0033333333333" y="466.0000000000002" as="geometry">
            <mxPoint x="8.83" y="-13" as="offset" />
          </mxGeometry>
        </mxCell>
        <mxCell id="IQOuE0TxBNfk_iXKN2kF-21" value="&lt;span style=&quot;white-space: normal&quot;&gt;sbeo:Earthquake&lt;/span&gt;" style="ellipse;whiteSpace=wrap;html=1;aspect=fixed;fillColor=#dae8fc;strokeColor=#6c8ebf;shadow=0;" parent="1" vertex="1">
          <mxGeometry x="-10" y="333" width="80" height="80" as="geometry" />
        </mxCell>
        <mxCell id="yLDOqc1vmUTKO-x5eXoO-4" style="edgeStyle=orthogonalEdgeStyle;curved=1;comic=0;orthogonalLoop=1;jettySize=auto;html=1;entryX=0.5;entryY=0;entryDx=0;entryDy=0;shadow=0;startArrow=classic;startFill=1;endArrow=none;endFill=0;dashed=1;exitX=1;exitY=0.5;exitDx=0;exitDy=0;" parent="1" source="EgX6zlfz2IxhlC0AGUEL-9" target="IQOuE0TxBNfk_iXKN2kF-21" edge="1">
          <mxGeometry relative="1" as="geometry">
            <mxPoint x="-59" y="256" as="sourcePoint" />
            <mxPoint x="-30.139999999999873" y="431" as="targetPoint" />
            <Array as="points" />
          </mxGeometry>
        </mxCell>
        <mxCell id="yLDOqc1vmUTKO-x5eXoO-5" value="rdfs:subClassOf" style="text;html=1;align=center;verticalAlign=middle;resizable=0;points=[];labelBackgroundColor=#ffffff;fontColor=#000000;" parent="yLDOqc1vmUTKO-x5eXoO-4" vertex="1" connectable="0">
          <mxGeometry x="0.4454" y="-9" relative="1" as="geometry">
            <mxPoint x="-11" y="-35.83" as="offset" />
          </mxGeometry>
        </mxCell>
        <mxCell id="IQOuE0TxBNfk_iXKN2kF-274" value="xsd:integer" style="rounded=0;whiteSpace=wrap;html=1;fillColor=#ffff88;strokeColor=#36393d;" parent="1" vertex="1">
          <mxGeometry x="213" y="326" width="78" height="20" as="geometry" />
        </mxCell>
        <mxCell id="yLDOqc1vmUTKO-x5eXoO-12" style="edgeStyle=orthogonalEdgeStyle;curved=1;comic=0;orthogonalLoop=1;jettySize=auto;html=1;exitX=0;exitY=0;exitDx=0;exitDy=0;entryX=0.5;entryY=0;entryDx=0;entryDy=0;shadow=0;startArrow=none;startFill=0;endArrow=classic;endFill=1;fontColor=#000000;" parent="1" source="EgX6zlfz2IxhlC0AGUEL-14" target="IQOuE0TxBNfk_iXKN2kF-274" edge="1">
          <mxGeometry relative="1" as="geometry">
            <Array as="points">
              <mxPoint x="492" y="176" />
              <mxPoint x="252" y="176" />
            </Array>
            <mxPoint x="548.2842712474799" y="291.78427124747964" as="sourcePoint" />
            <mxPoint x="728.9899999999998" y="741" as="targetPoint" />
          </mxGeometry>
        </mxCell>
        <mxCell id="yLDOqc1vmUTKO-x5eXoO-13" value="&lt;span style=&quot;background-color: rgb(102 , 255 , 102)&quot;&gt;sbeo:current&lt;br&gt;Occupancy&lt;/span&gt;" style="text;html=1;align=center;verticalAlign=middle;resizable=0;points=[];labelBackgroundColor=#ffffff;" parent="yLDOqc1vmUTKO-x5eXoO-12" vertex="1" connectable="0">
          <mxGeometry x="0.3717" y="1" relative="1" as="geometry">
            <mxPoint x="127" y="-9.060000000000004" as="offset" />
          </mxGeometry>
        </mxCell>
        <mxCell id="yLDOqc1vmUTKO-x5eXoO-32" value="SBEO :Smart Building Evacuation Ontology&amp;nbsp;&lt;br&gt;&lt;span style=&quot;font-weight: normal&quot;&gt;Classes and Properties Diagram (Complete)&lt;/span&gt;" style="text;strokeColor=none;fillColor=none;html=1;fontSize=24;fontStyle=1;verticalAlign=middle;align=center;" parent="1" vertex="1">
          <mxGeometry x="113" y="36" width="100" height="40" as="geometry" />
        </mxCell>
        <mxCell id="VPrufkFk8iNLAKp49una-133" style="edgeStyle=orthogonalEdgeStyle;curved=1;comic=0;orthogonalLoop=1;jettySize=auto;html=1;exitX=0.5;exitY=1;exitDx=0;exitDy=0;entryX=0.5;entryY=0;entryDx=0;entryDy=0;shadow=0;startArrow=none;startFill=0;endArrow=classic;endFill=1;fontColor=#000000;" edge="1" parent="1" target="VPrufkFk8iNLAKp49una-159">
          <mxGeometry relative="1" as="geometry">
            <Array as="points">
              <mxPoint x="-338" y="598" />
              <mxPoint x="-577" y="598" />
              <mxPoint x="-577" y="784" />
              <mxPoint x="-486" y="784" />
            </Array>
            <mxPoint x="-338.0000000000002" y="543.9999999999999" as="sourcePoint" />
          </mxGeometry>
        </mxCell>
        <mxCell id="VPrufkFk8iNLAKp49una-134" value="&lt;span style=&quot;background-color: rgb(255 , 102 , 102)&quot;&gt;foaf:lastName&lt;/span&gt;" style="text;html=1;align=center;verticalAlign=middle;resizable=0;points=[];labelBackgroundColor=#ffffff;" vertex="1" connectable="0" parent="VPrufkFk8iNLAKp49una-133">
          <mxGeometry x="0.504" y="-2" relative="1" as="geometry">
            <mxPoint x="15" y="-0.3299999999999912" as="offset" />
          </mxGeometry>
        </mxCell>
        <mxCell id="VPrufkFk8iNLAKp49una-135" style="edgeStyle=orthogonalEdgeStyle;curved=1;comic=0;orthogonalLoop=1;jettySize=auto;html=1;exitX=0.5;exitY=1;exitDx=0;exitDy=0;entryX=0.5;entryY=0;entryDx=0;entryDy=0;shadow=0;startArrow=none;startFill=0;endArrow=classic;endFill=1;fontColor=#000000;" edge="1" parent="1" target="VPrufkFk8iNLAKp49una-160">
          <mxGeometry relative="1" as="geometry">
            <Array as="points">
              <mxPoint x="-338" y="588" />
              <mxPoint x="-607" y="588" />
              <mxPoint x="-607" y="828" />
              <mxPoint x="-486" y="828" />
            </Array>
            <mxPoint x="-338.0000000000002" y="543.9999999999999" as="sourcePoint" />
          </mxGeometry>
        </mxCell>
        <mxCell id="VPrufkFk8iNLAKp49una-136" value="&lt;span style=&quot;background-color: rgb(102 , 255 , 102)&quot;&gt;sbeo:evacuation&lt;/span&gt;&lt;br&gt;&lt;span style=&quot;background-color: rgb(102 , 255 , 102)&quot;&gt;Status&lt;/span&gt;" style="text;html=1;align=center;verticalAlign=middle;resizable=0;points=[];labelBackgroundColor=#ffffff;" vertex="1" connectable="0" parent="VPrufkFk8iNLAKp49una-135">
          <mxGeometry x="0.4045" y="4" relative="1" as="geometry">
            <mxPoint x="19" y="42.33" as="offset" />
          </mxGeometry>
        </mxCell>
        <mxCell id="VPrufkFk8iNLAKp49una-137" style="edgeStyle=orthogonalEdgeStyle;curved=1;comic=0;orthogonalLoop=1;jettySize=auto;html=1;exitX=0.5;exitY=1;exitDx=0;exitDy=0;entryX=0.5;entryY=0;entryDx=0;entryDy=0;shadow=0;startArrow=none;startFill=0;endArrow=classic;endFill=1;fontColor=#000000;" edge="1" parent="1" target="VPrufkFk8iNLAKp49una-165">
          <mxGeometry relative="1" as="geometry">
            <Array as="points">
              <mxPoint x="-338" y="658" />
              <mxPoint x="-488" y="658" />
            </Array>
            <mxPoint x="-338.0000000000002" y="543.9999999999999" as="sourcePoint" />
          </mxGeometry>
        </mxCell>
        <mxCell id="VPrufkFk8iNLAKp49una-138" value="&lt;span style=&quot;background-color: rgb(102 , 255 , 102)&quot;&gt;sbeo:familyID&lt;/span&gt;" style="text;html=1;align=center;verticalAlign=middle;resizable=0;points=[];labelBackgroundColor=#ffffff;" vertex="1" connectable="0" parent="VPrufkFk8iNLAKp49una-137">
          <mxGeometry x="-0.0356" y="-5" relative="1" as="geometry">
            <mxPoint x="-46.83" y="-5" as="offset" />
          </mxGeometry>
        </mxCell>
        <mxCell id="VPrufkFk8iNLAKp49una-139" style="edgeStyle=orthogonalEdgeStyle;curved=1;comic=0;orthogonalLoop=1;jettySize=auto;html=1;exitX=0.5;exitY=1;exitDx=0;exitDy=0;entryX=0.5;entryY=0;entryDx=0;entryDy=0;shadow=0;startArrow=none;startFill=0;endArrow=classic;endFill=1;fontColor=#000000;" edge="1" parent="1" target="VPrufkFk8iNLAKp49una-157">
          <mxGeometry relative="1" as="geometry">
            <Array as="points">
              <mxPoint x="-338" y="694" />
              <mxPoint x="-486" y="694" />
            </Array>
            <mxPoint x="-338.0000000000002" y="543.9999999999999" as="sourcePoint" />
          </mxGeometry>
        </mxCell>
        <mxCell id="VPrufkFk8iNLAKp49una-140" value="&lt;span style=&quot;background-color: rgb(102 , 255 , 102)&quot;&gt;sbeo:groupID&lt;/span&gt;" style="text;html=1;align=center;verticalAlign=middle;resizable=0;points=[];labelBackgroundColor=#ffffff;" vertex="1" connectable="0" parent="VPrufkFk8iNLAKp49una-139">
          <mxGeometry x="-0.0031" y="-6" relative="1" as="geometry">
            <mxPoint x="-39.35" y="-6" as="offset" />
          </mxGeometry>
        </mxCell>
        <mxCell id="VPrufkFk8iNLAKp49una-141" style="edgeStyle=orthogonalEdgeStyle;curved=1;comic=0;orthogonalLoop=1;jettySize=auto;html=1;exitX=0.5;exitY=1;exitDx=0;exitDy=0;entryX=0.5;entryY=0;entryDx=0;entryDy=0;shadow=0;startArrow=none;startFill=0;endArrow=classic;endFill=1;fontColor=#000000;" edge="1" parent="1" target="VPrufkFk8iNLAKp49una-158">
          <mxGeometry relative="1" as="geometry">
            <Array as="points">
              <mxPoint x="-327" y="544" />
              <mxPoint x="-327" y="734" />
              <mxPoint x="-486" y="734" />
            </Array>
            <mxPoint x="-338.0000000000002" y="543.9999999999999" as="sourcePoint" />
          </mxGeometry>
        </mxCell>
        <mxCell id="VPrufkFk8iNLAKp49una-142" value="&lt;span style=&quot;background-color: rgb(102 , 255 , 102)&quot;&gt;sbeo:fitnessLevel&lt;/span&gt;" style="text;html=1;align=center;verticalAlign=middle;resizable=0;points=[];labelBackgroundColor=#ffffff;" vertex="1" connectable="0" parent="VPrufkFk8iNLAKp49una-141">
          <mxGeometry x="0.361" y="-2" relative="1" as="geometry">
            <mxPoint x="8" y="-10" as="offset" />
          </mxGeometry>
        </mxCell>
        <mxCell id="VPrufkFk8iNLAKp49una-143" style="edgeStyle=orthogonalEdgeStyle;curved=1;comic=0;orthogonalLoop=1;jettySize=auto;html=1;exitX=0.5;exitY=1;exitDx=0;exitDy=0;entryX=0.5;entryY=0;entryDx=0;entryDy=0;shadow=0;startArrow=none;startFill=0;endArrow=classic;endFill=1;fontColor=#000000;" edge="1" parent="1" target="VPrufkFk8iNLAKp49una-161">
          <mxGeometry relative="1" as="geometry">
            <Array as="points">
              <mxPoint x="-338" y="578" />
              <mxPoint x="-647" y="578" />
              <mxPoint x="-647" y="868" />
              <mxPoint x="-486" y="868" />
            </Array>
            <mxPoint x="-338.0000000000002" y="543.9999999999999" as="sourcePoint" />
          </mxGeometry>
        </mxCell>
        <mxCell id="VPrufkFk8iNLAKp49una-144" value="&lt;span style=&quot;background-color: rgb(102 , 255 , 102)&quot;&gt;sbeo:familiarity&lt;/span&gt;&lt;br&gt;&lt;span style=&quot;background-color: rgb(102 , 255 , 102)&quot;&gt;WithBuilding&lt;/span&gt;" style="text;html=1;align=center;verticalAlign=middle;resizable=0;points=[];labelBackgroundColor=#ffffff;" vertex="1" connectable="0" parent="VPrufkFk8iNLAKp49una-143">
          <mxGeometry x="-0.1464" y="3" relative="1" as="geometry">
            <mxPoint x="56" y="272" as="offset" />
          </mxGeometry>
        </mxCell>
        <mxCell id="VPrufkFk8iNLAKp49una-145" style="edgeStyle=orthogonalEdgeStyle;curved=1;comic=0;orthogonalLoop=1;jettySize=auto;html=1;exitX=0.5;exitY=1;exitDx=0;exitDy=0;entryX=1;entryY=0.5;entryDx=0;entryDy=0;shadow=0;startArrow=none;startFill=0;endArrow=classic;endFill=1;fontColor=#000000;" edge="1" parent="1" target="VPrufkFk8iNLAKp49una-158">
          <mxGeometry relative="1" as="geometry">
            <Array as="points">
              <mxPoint x="-317" y="544" />
              <mxPoint x="-317" y="768" />
              <mxPoint x="-398" y="768" />
              <mxPoint x="-398" y="766" />
            </Array>
            <mxPoint x="-338.0000000000002" y="543.9999999999999" as="sourcePoint" />
          </mxGeometry>
        </mxCell>
        <mxCell id="VPrufkFk8iNLAKp49una-146" value="&lt;span style=&quot;background-color: rgb(102 , 255 , 102)&quot;&gt;sbeo:hasID&lt;/span&gt;" style="text;html=1;align=center;verticalAlign=middle;resizable=0;points=[];labelBackgroundColor=#ffffff;" vertex="1" connectable="0" parent="VPrufkFk8iNLAKp49una-145">
          <mxGeometry x="0.477" y="-5" relative="1" as="geometry">
            <mxPoint x="-27.67" y="3.07" as="offset" />
          </mxGeometry>
        </mxCell>
        <mxCell id="VPrufkFk8iNLAKp49una-147" style="edgeStyle=orthogonalEdgeStyle;curved=1;comic=0;orthogonalLoop=1;jettySize=auto;html=1;exitX=0.5;exitY=1;exitDx=0;exitDy=0;entryX=0.5;entryY=0;entryDx=0;entryDy=0;shadow=0;startArrow=none;startFill=0;endArrow=classic;endFill=1;fontColor=#000000;" edge="1" parent="1" target="VPrufkFk8iNLAKp49una-162">
          <mxGeometry relative="1" as="geometry">
            <Array as="points">
              <mxPoint x="-307" y="544" />
              <mxPoint x="-307" y="788" />
              <mxPoint x="-398" y="788" />
            </Array>
            <mxPoint x="-338.0000000000002" y="543.9999999999999" as="sourcePoint" />
          </mxGeometry>
        </mxCell>
        <mxCell id="VPrufkFk8iNLAKp49una-148" value="&lt;span style=&quot;background-color: rgb(255 , 102 , 102)&quot;&gt;foaf:firstName&lt;/span&gt;" style="text;html=1;align=center;verticalAlign=middle;resizable=0;points=[];labelBackgroundColor=#ffffff;" vertex="1" connectable="0" parent="VPrufkFk8iNLAKp49una-147">
          <mxGeometry x="0.1755" y="-76" relative="1" as="geometry">
            <mxPoint x="36" y="50.83" as="offset" />
          </mxGeometry>
        </mxCell>
        <mxCell id="VPrufkFk8iNLAKp49una-149" style="edgeStyle=orthogonalEdgeStyle;curved=1;comic=0;orthogonalLoop=1;jettySize=auto;html=1;exitX=0.5;exitY=1;exitDx=0;exitDy=0;entryX=0.5;entryY=0;entryDx=0;entryDy=0;shadow=0;startArrow=none;startFill=0;endArrow=classic;endFill=1;fontColor=#000000;" edge="1" parent="1" target="VPrufkFk8iNLAKp49una-163">
          <mxGeometry relative="1" as="geometry">
            <Array as="points">
              <mxPoint x="-257" y="544" />
              <mxPoint x="-257" y="868" />
              <mxPoint x="-398" y="868" />
            </Array>
            <mxPoint x="-338.0000000000002" y="543.9999999999999" as="sourcePoint" />
          </mxGeometry>
        </mxCell>
        <mxCell id="VPrufkFk8iNLAKp49una-150" value="&lt;span style=&quot;background-color: rgb(102 , 255 , 102)&quot;&gt;sbeo:needs&lt;br&gt;Supervision&lt;/span&gt;" style="text;html=1;align=center;verticalAlign=middle;resizable=0;points=[];labelBackgroundColor=#ffffff;" vertex="1" connectable="0" parent="VPrufkFk8iNLAKp49una-149">
          <mxGeometry x="0.5475" y="-1" relative="1" as="geometry">
            <mxPoint x="-1.6699999999999982" y="-10" as="offset" />
          </mxGeometry>
        </mxCell>
        <mxCell id="VPrufkFk8iNLAKp49una-151" style="edgeStyle=orthogonalEdgeStyle;curved=1;comic=0;orthogonalLoop=1;jettySize=auto;html=1;exitX=0.5;exitY=1;exitDx=0;exitDy=0;entryX=0.5;entryY=0;entryDx=0;entryDy=0;shadow=0;startArrow=none;startFill=0;endArrow=classic;endFill=1;fontColor=#000000;" edge="1" parent="1" target="VPrufkFk8iNLAKp49una-164">
          <mxGeometry relative="1" as="geometry">
            <Array as="points">
              <mxPoint x="-287" y="544" />
              <mxPoint x="-287" y="828" />
              <mxPoint x="-398" y="828" />
            </Array>
            <mxPoint x="-338.0000000000002" y="543.9999999999999" as="sourcePoint" />
          </mxGeometry>
        </mxCell>
        <mxCell id="VPrufkFk8iNLAKp49una-152" value="&lt;span style=&quot;color: rgba(0 , 0 , 0 , 0) ; font-family: monospace ; font-size: 0px ; background-color: rgb(248 , 249 , 250)&quot;&gt;%3CmxGraphModel%3E%3Croot%3E%3CmxCell%20id%3D%220%22%2F%3E%3CmxCell%20id%3D%221%22%20parent%3D%220%22%2F%3E%3CmxCell%20id%3D%222%22%20value%3D%22xsd%3Astring%22%20style%3D%22rounded%3D0%3BwhiteSpace%3Dwrap%3Bhtml%3D1%3BfillColor%3D%23ffff88%3BstrokeColor%3D%2336393d%3B%22%20vertex%3D%221%22%20parent%3D%221%22%3E%3CmxGeometry%20x%3D%22-560%22%20y%3D%22950%22%20width%3D%2278%22%20height%3D%2220%22%20as%3D%22geometry%22%2F%3E%3C%2FmxCell%3E%3C%2Froot%3E%3C%2FmxGraphModel%3E&lt;/span&gt;" style="text;html=1;align=center;verticalAlign=middle;resizable=0;points=[];labelBackgroundColor=#ffffff;" vertex="1" connectable="0" parent="VPrufkFk8iNLAKp49una-151">
          <mxGeometry x="0.5207" y="-5" relative="1" as="geometry">
            <mxPoint as="offset" />
          </mxGeometry>
        </mxCell>
        <mxCell id="VPrufkFk8iNLAKp49una-153" value="&lt;span style=&quot;background-color: rgb(102 , 255 , 102)&quot;&gt;sbeo:atTime&lt;/span&gt;" style="text;html=1;align=center;verticalAlign=middle;resizable=0;points=[];labelBackgroundColor=#ffffff;" vertex="1" connectable="0" parent="VPrufkFk8iNLAKp49una-151">
          <mxGeometry x="0.698" y="-10" relative="1" as="geometry">
            <mxPoint x="33" y="-4" as="offset" />
          </mxGeometry>
        </mxCell>
        <mxCell id="VPrufkFk8iNLAKp49una-154" style="edgeStyle=orthogonalEdgeStyle;orthogonalLoop=1;jettySize=auto;html=1;exitX=0.5;exitY=1;exitDx=0;exitDy=0;entryX=0.5;entryY=0;entryDx=0;entryDy=0;curved=1;" edge="1" parent="1" target="VPrufkFk8iNLAKp49una-156">
          <mxGeometry relative="1" as="geometry">
            <mxPoint x="-338.0000000000002" y="543.9999999999999" as="sourcePoint" />
            <Array as="points">
              <mxPoint x="-338" y="608" />
              <mxPoint x="-486" y="608" />
            </Array>
          </mxGeometry>
        </mxCell>
        <mxCell id="VPrufkFk8iNLAKp49una-155" value="&lt;span style=&quot;&quot;&gt;foaf:age&lt;/span&gt;" style="text;html=1;align=center;verticalAlign=middle;resizable=0;points=[];labelBackgroundColor=#FF6666;" vertex="1" connectable="0" parent="VPrufkFk8iNLAKp49una-154">
          <mxGeometry x="0.0505" y="1" relative="1" as="geometry">
            <mxPoint x="-10.93" y="-1" as="offset" />
          </mxGeometry>
        </mxCell>
        <mxCell id="VPrufkFk8iNLAKp49una-156" value="xsd:integer" style="rounded=0;whiteSpace=wrap;html=1;fillColor=#ffff88;strokeColor=#36393d;" vertex="1" parent="1">
          <mxGeometry x="-525" y="628" width="78" height="20" as="geometry" />
        </mxCell>
        <mxCell id="VPrufkFk8iNLAKp49una-157" value="xsd:integer" style="rounded=0;whiteSpace=wrap;html=1;fillColor=#ffff88;strokeColor=#36393d;" vertex="1" parent="1">
          <mxGeometry x="-525" y="712" width="78" height="20" as="geometry" />
        </mxCell>
        <mxCell id="VPrufkFk8iNLAKp49una-158" value="xsd:integer" style="rounded=0;whiteSpace=wrap;html=1;fillColor=#ffff88;strokeColor=#36393d;" vertex="1" parent="1">
          <mxGeometry x="-525" y="756.07" width="78" height="20" as="geometry" />
        </mxCell>
        <mxCell id="VPrufkFk8iNLAKp49una-159" value="xsd:string" style="rounded=0;whiteSpace=wrap;html=1;fillColor=#ffff88;strokeColor=#36393d;" vertex="1" parent="1">
          <mxGeometry x="-525" y="803.9999999999999" width="78" height="20" as="geometry" />
        </mxCell>
        <mxCell id="VPrufkFk8iNLAKp49una-160" value="xsd:string" style="rounded=0;whiteSpace=wrap;html=1;fillColor=#ffff88;strokeColor=#36393d;" vertex="1" parent="1">
          <mxGeometry x="-525" y="847" width="78" height="20" as="geometry" />
        </mxCell>
        <mxCell id="VPrufkFk8iNLAKp49una-161" value="xsd:boolean" style="rounded=0;whiteSpace=wrap;html=1;fillColor=#ffff88;strokeColor=#36393d;" vertex="1" parent="1">
          <mxGeometry x="-525" y="894" width="78" height="20" as="geometry" />
        </mxCell>
        <mxCell id="VPrufkFk8iNLAKp49una-162" value="xsd:string" style="rounded=0;whiteSpace=wrap;html=1;fillColor=#ffff88;strokeColor=#36393d;" vertex="1" parent="1">
          <mxGeometry x="-437" y="804" width="78" height="20" as="geometry" />
        </mxCell>
        <mxCell id="VPrufkFk8iNLAKp49una-163" value="xsd:boolean" style="rounded=0;whiteSpace=wrap;html=1;fillColor=#ffff88;strokeColor=#36393d;" vertex="1" parent="1">
          <mxGeometry x="-437" y="894" width="78" height="20" as="geometry" />
        </mxCell>
        <mxCell id="VPrufkFk8iNLAKp49una-164" value="xsd:long" style="rounded=0;whiteSpace=wrap;html=1;fillColor=#ffff88;strokeColor=#36393d;" vertex="1" parent="1">
          <mxGeometry x="-437" y="847" width="78" height="20" as="geometry" />
        </mxCell>
        <mxCell id="VPrufkFk8iNLAKp49una-165" value="xsd:integer" style="rounded=0;whiteSpace=wrap;html=1;fillColor=#ffff88;strokeColor=#36393d;" vertex="1" parent="1">
          <mxGeometry x="-527" y="672" width="78" height="20" as="geometry" />
        </mxCell>
        <mxCell id="VPrufkFk8iNLAKp49una-166" value="" style="shape=ext;double=1;whiteSpace=wrap;html=1;align=center;" vertex="1" parent="1">
          <mxGeometry x="-1170" y="20" width="236" height="300" as="geometry" />
        </mxCell>
        <mxCell id="VPrufkFk8iNLAKp49una-167" value="" style="ellipse;whiteSpace=wrap;html=1;aspect=fixed;fillColor=#dae8fc;strokeColor=#6c8ebf;" vertex="1" parent="1">
          <mxGeometry x="-1133" y="29.5" width="40" height="40" as="geometry" />
        </mxCell>
        <mxCell id="VPrufkFk8iNLAKp49una-168" value="" style="ellipse;whiteSpace=wrap;html=1;aspect=fixed;fillColor=#1ba1e2;strokeColor=#006EAF;fontColor=#ffffff;" vertex="1" parent="1">
          <mxGeometry x="-1133" y="74.5" width="40" height="40" as="geometry" />
        </mxCell>
        <mxCell id="VPrufkFk8iNLAKp49una-169" value="" style="rounded=0;whiteSpace=wrap;html=1;fillColor=#ffff88;strokeColor=#36393d;" vertex="1" parent="1">
          <mxGeometry x="-1138.5" y="173.5" width="49" height="20" as="geometry" />
        </mxCell>
        <UserObject label="&lt;span style=&quot;font-size: 15px ; text-align: center ; background-color: rgb(102 , 255 , 102)&quot;&gt;&lt;font color=&quot;#66ff66&quot;&gt;sbeo:ha&lt;/font&gt;&lt;/span&gt;" id="VPrufkFk8iNLAKp49una-170">
          <mxCell style="text;html=1;" vertex="1" parent="1">
            <mxGeometry x="-1142" y="238.5" width="56" height="30" as="geometry" />
          </mxCell>
        </UserObject>
        <UserObject label="&lt;span style=&quot;font-size: 15px ; text-align: center ; background-color: rgb(102 , 255 , 255)&quot;&gt;&lt;font color=&quot;#66ffff&quot;&gt;sbeo:ha&lt;/font&gt;&lt;/span&gt;" id="VPrufkFk8iNLAKp49una-171">
          <mxCell style="text;html=1;" vertex="1" parent="1">
            <mxGeometry x="-1142" y="205.5" width="56" height="30" as="geometry" />
          </mxCell>
        </UserObject>
        <mxCell id="VPrufkFk8iNLAKp49una-172" value="" style="ellipse;whiteSpace=wrap;html=1;aspect=fixed;fillColor=#FF99FF;strokeColor=#6c8ebf;rounded=0;labelBackgroundColor=none;align=center;" vertex="1" parent="1">
          <mxGeometry x="-1133" y="120.5" width="40" height="40" as="geometry" />
        </mxCell>
        <mxCell id="VPrufkFk8iNLAKp49una-173" value="Class" style="text;html=1;align=center;verticalAlign=middle;resizable=0;points=[];autosize=1;labelPosition=center;verticalLabelPosition=middle;" vertex="1" parent="1">
          <mxGeometry x="-1037" y="38.5" width="50" height="20" as="geometry" />
        </mxCell>
        <mxCell id="VPrufkFk8iNLAKp49una-174" value="External class,&lt;br&gt;reused/imported&lt;br&gt;from other ontologies" style="text;html=1;align=center;verticalAlign=middle;resizable=0;points=[];autosize=1;labelPosition=center;verticalLabelPosition=middle;" vertex="1" parent="1">
          <mxGeometry x="-1074" y="70.5" width="130" height="50" as="geometry" />
        </mxCell>
        <mxCell id="VPrufkFk8iNLAKp49una-175" value="Multiple Classes&lt;br&gt;all together" style="text;html=1;align=center;verticalAlign=middle;resizable=0;points=[];autosize=1;labelPosition=center;verticalLabelPosition=middle;" vertex="1" parent="1">
          <mxGeometry x="-1059" y="123.5" width="100" height="30" as="geometry" />
        </mxCell>
        <mxCell id="VPrufkFk8iNLAKp49una-176" value="Datatype of the&lt;br&gt;Range of Data Property" style="text;html=1;align=center;verticalAlign=middle;resizable=0;points=[];autosize=1;labelPosition=center;verticalLabelPosition=middle;" vertex="1" parent="1">
          <mxGeometry x="-1079" y="168.5" width="140" height="30" as="geometry" />
        </mxCell>
        <mxCell id="VPrufkFk8iNLAKp49una-177" value="Object Property" style="text;html=1;align=center;verticalAlign=middle;resizable=0;points=[];autosize=1;labelPosition=center;verticalLabelPosition=middle;" vertex="1" parent="1">
          <mxGeometry x="-1061" y="210.5" width="100" height="20" as="geometry" />
        </mxCell>
        <mxCell id="VPrufkFk8iNLAKp49una-178" value="Data Property" style="text;html=1;align=center;verticalAlign=middle;resizable=0;points=[];autosize=1;labelPosition=center;verticalLabelPosition=middle;" vertex="1" parent="1">
          <mxGeometry x="-1057" y="243.5" width="90" height="20" as="geometry" />
        </mxCell>
        <UserObject label="&lt;span style=&quot;font-size: 15px ; text-align: center ; background-color: rgb(255 , 102 , 102)&quot;&gt;&lt;font color=&quot;#ff6666&quot;&gt;sbeo:ha&lt;/font&gt;&lt;/span&gt;" id="VPrufkFk8iNLAKp49una-179">
          <mxCell style="text;html=1;" vertex="1" parent="1">
            <mxGeometry x="-1142" y="271.5" width="56" height="30" as="geometry" />
          </mxCell>
        </UserObject>
        <mxCell id="VPrufkFk8iNLAKp49una-180" value="External property,&lt;br&gt;reused/imported&lt;br&gt;from other ontologies" style="text;html=1;align=center;verticalAlign=middle;resizable=0;points=[];autosize=1;" vertex="1" parent="1">
          <mxGeometry x="-1074" y="266.5" width="130" height="50" as="geometry" />
        </mxCell>
      </root>
    </mxGraphModel>
  </diagram>
</mxfile>
